<svg width="548" height="474" viewBox="0 0 548 474" fill="none" xmlns="http://www.w3.org/2000/svg">
<g opacity="0.5">
<path fill-rule="evenodd" clip-rule="evenodd" d="M70.3566 50.7213C69.0975 51.9783 69.5866 56.4458 69.5602 58.099C69.5197 60.6728 69.6799 63.2235 69.895 65.788C70.0392 67.505 70.8519 83.891 73.1136 82.6325C74.3886 81.9235 73.5892 77.1834 73.587 75.6841C73.5818 72.3509 73.4432 69.0258 73.2209 65.7C73.0143 62.6124 72.8846 59.5608 73.0036 56.4673C73.0325 55.7123 73.739 47.3328 70.3566 50.7213" fill="#7D95E8"/>
<path fill-rule="evenodd" clip-rule="evenodd" d="M125.184 48.701C114.368 48.7871 103.556 49.3206 92.7454 49.6475C87.5432 49.8048 82.3444 50.0048 77.1477 50.293C75.377 50.3914 71.5791 49.8244 70.1038 50.7679C66.8288 52.8627 72.1105 53.3524 73.5186 53.3012C94.9134 52.5255 116.316 51.5037 137.729 51.4554C148.233 51.4321 158.732 51.7311 169.237 51.664C173.252 51.6384 177.699 49.9083 178.713 54.5824C179.858 59.8567 178.543 65.7292 178.185 71.0292C177.946 74.5672 178.031 78.0318 178.19 81.5668C178.292 83.8315 178.026 86.3834 178.427 88.6057C178.812 90.7458 180.35 92.0291 181.761 89.632C182.603 88.1995 182.184 84.6626 182.24 83.003C182.316 80.768 182.245 78.5337 182.245 76.2984C182.244 70.8422 183.014 65.4075 182.912 59.9525C182.847 56.4349 182.66 50.0578 178.223 49.2126C173.338 48.2818 167.333 49.2178 162.333 49.1607C149.944 49.0193 137.577 48.6042 125.184 48.701" fill="#7D95E8"/>
<path fill-rule="evenodd" clip-rule="evenodd" d="M95.3795 82.8278C91.301 82.8278 87.2222 82.8523 83.1441 82.9199C79.6465 82.9777 74.1474 82.2487 70.8921 83.5001C68.6635 84.3568 68.0715 86.8448 70.8921 87.5075C73.9683 88.2306 78.6045 87.0485 81.823 86.9918C97.9622 86.7068 114.257 86.3354 130.373 87.3561C145.475 88.3122 160.867 89.2394 175.991 88.2302C177.264 88.1453 183.753 87.887 180.792 85.4543C179.064 84.0344 172.062 84.9682 169.817 84.9003C161.897 84.6614 153.97 84.6084 146.053 84.3082C138.24 84.0118 130.461 83.1332 122.645 82.9158C113.564 82.6631 104.463 82.8278 95.3795 82.8278" fill="#7D95E8"/>
<path fill-rule="evenodd" clip-rule="evenodd" d="M91.2938 59.6299C97.6506 59.9075 103.94 69.1265 97.5079 73.582C91.474 77.7627 80.1655 73.181 83.5208 65.0743C83.0384 66.2463 84.1306 63.8009 84.1443 63.7846C84.7824 63.0329 85.9281 62.2007 86.7144 61.6082C87.6144 60.93 88.5516 60.1835 89.6368 59.8437C90.3491 59.6207 90.2373 60.4599 91.2938 59.6299M88.201 56.3047C85.2259 57.4664 83.868 58.7768 81.8234 61.148C80.4087 62.789 78.6052 63.6524 78.6212 65.8699C78.6245 66.3608 79.2552 66.9002 79.3641 67.3729C79.5146 68.0263 79.3403 68.8633 79.4596 69.5575C80.6903 76.7203 89.2367 79.1353 95.4924 77.7829C100.942 76.6049 105.017 71.374 103.755 65.6859C102.484 59.96 93.993 54.0393 88.201 56.3047" fill="#7D95E8"/>
<path fill-rule="evenodd" clip-rule="evenodd" d="M85.5586 66.3053C85.5586 68.882 89.6289 68.882 89.6289 66.3053C89.6289 63.7579 85.5586 63.6485 85.5586 66.3053" fill="#7D95E8"/>
<path fill-rule="evenodd" clip-rule="evenodd" d="M90.6406 65.7842C90.6406 67.8318 93.8748 67.8318 93.8748 65.7842C93.8748 63.7599 90.6406 63.6735 90.6406 65.7842" fill="#7D95E8"/>
<path fill-rule="evenodd" clip-rule="evenodd" d="M91.6461 70.0063C90.6104 70.4044 89.2968 69.5789 88.4465 70.1228C86.9408 71.0867 88.4502 71.959 89.2574 72.3463C92.8914 74.0901 93.538 69.2817 91.6461 70.0063" fill="#7D95E8"/>
<path fill-rule="evenodd" clip-rule="evenodd" d="M147.148 64.2951C147.04 64.3411 146.654 64.5044 147.148 64.2951ZM131.322 61.9822C128.603 62.5962 126.306 65.1362 123.351 64.7964C121.086 64.5359 119.553 62.3506 117.317 62.033C114.457 61.6264 106.674 68.1504 110.766 69.2697C113.154 69.9231 114.478 65.5599 116.588 65.328C118.256 65.1447 120.525 67.1909 122.254 67.4822C125.48 68.0257 127.695 66.2489 130.527 65.1032C133.604 63.8581 135.354 64.9793 138.03 66.3632C140.143 67.4554 142.132 68.1667 144.549 67.7159C146.817 67.2933 149.667 64.9607 151.95 65.2C154.186 65.4345 155.782 67.7682 158.083 67.9849C159.031 68.0739 160.443 68.3971 160.283 66.9338C160.156 65.7621 158.848 65.9606 158.031 65.5347C155.927 64.4394 153.96 62.4994 151.421 62.6649C149.512 62.7895 147.774 64.1311 146.014 64.773C140.251 66.8748 137.011 60.7063 131.322 61.9822" fill="#7D95E8"/>
<path fill-rule="evenodd" clip-rule="evenodd" d="M136.135 99.0966C125.018 99.1986 113.864 99.3637 102.779 100.255C100.151 100.466 73.3163 103 73.3673 103.182C73.4613 103.52 76.9128 104.036 76.8913 104.115C76.6586 103.538 76.1269 103.299 75.2963 103.399C100.747 103.399 126.117 101.12 151.601 101.53C158.004 101.633 164.432 101.59 170.83 101.792C172.428 101.842 176.386 102.987 177.641 102.266C180.933 100.373 174.952 100.154 173.961 100.075C161.42 99.0717 148.711 98.9712 136.135 99.0966" fill="#7D95E8"/>
<path fill-rule="evenodd" clip-rule="evenodd" d="M70.0723 104.497C68.4104 106.163 69.9407 112.157 70.0061 114.41C70.1009 117.667 70.0229 120.947 70.3086 124.196C70.6349 127.907 71.141 131.86 72.1147 135.461C72.6509 137.444 74.5331 140.596 75.2789 136.992C75.8115 134.418 75.0028 131.003 74.7215 128.381C74.3451 124.873 74.254 121.411 74.2399 117.886C74.2273 114.814 74.1682 111.73 73.9162 108.668C73.7854 107.078 72.9857 101.599 70.0723 104.497" fill="#7D95E8"/>
<path fill-rule="evenodd" clip-rule="evenodd" d="M111.883 135.024C103.994 135.159 96.0884 135.345 88.2132 135.838C84.9854 136.04 81.7602 136.341 78.5442 136.682C77.888 136.752 70.6244 137.047 73.8701 139.727C75.335 140.937 81.361 139.264 83.3514 139.09C86.6989 138.796 90.0456 138.606 93.4028 138.463C101.181 138.133 108.984 137.842 116.77 137.977C130.99 138.223 145.119 138.334 159.343 138.016C161.364 137.971 177.197 138.394 177.734 136.292C178.168 134.597 172.506 135.375 171.473 135.406C167.686 135.519 163.899 135.492 160.11 135.473C144.061 135.391 127.919 134.753 111.883 135.024" fill="#7D95E8"/>
<path fill-rule="evenodd" clip-rule="evenodd" d="M175.052 101.686C175.302 108.709 176.499 115.725 176.881 122.77C177.056 125.99 177.262 129.208 177.419 132.429C177.47 133.468 177.051 135.972 178.28 136.57C179.966 137.39 180.193 135.738 180.508 134.62C181.42 131.393 180.803 127.2 180.721 123.884C180.641 120.673 180.635 117.457 180.398 114.252C180.156 110.978 179.496 107.766 179.191 104.503C179.061 103.123 179.514 100.827 178.049 99.9707C176.783 99.2306 174.997 100.163 175.052 101.686" fill="#7D95E8"/>
<path fill-rule="evenodd" clip-rule="evenodd" d="M97.5238 113.37C97.5539 113.393 97.5837 113.417 97.6134 113.44C97.5837 113.417 97.5536 113.394 97.5238 113.37M90.8212 111.287C93.3211 112.001 95.3742 111.735 97.7622 113.555C99.7418 115.064 101.772 117.271 102.429 119.711C103.946 125.348 98.8031 128.437 93.9818 128.498C89.0434 128.56 81.7338 127.414 81.9869 121.085C82.1808 116.221 85.732 111.476 90.8212 111.287M90.9955 108.102C84.5131 108.425 79.2842 115.705 79.3403 121.833C79.4079 129.259 87.8231 131.173 93.8008 131.224C100.547 131.282 107.275 126.623 105.467 119.037C104.019 112.958 97.2293 107.778 90.9955 108.102" fill="#7D95E8"/>
<path fill-rule="evenodd" clip-rule="evenodd" d="M84.4688 118.074C84.4688 120.145 87.7408 120.145 87.7408 118.074C87.7408 116.027 84.4688 115.939 84.4688 118.074" fill="#7D95E8"/>
<path fill-rule="evenodd" clip-rule="evenodd" d="M91.3281 117.165C91.3281 119.252 94.6262 119.252 94.6262 117.165C94.6262 115.102 91.3281 115.013 91.3281 117.165" fill="#7D95E8"/>
<path fill-rule="evenodd" clip-rule="evenodd" d="M87.5461 121.89C85.4164 124.017 92.8981 127.744 94.6625 124.786C96.1118 122.357 92.9564 123.162 91.8379 123.031C90.6223 122.888 88.5383 120.901 87.5461 121.89" fill="#7D95E8"/>
<path fill-rule="evenodd" clip-rule="evenodd" d="M147.368 117.208C147.163 117.294 147.163 117.294 147.368 117.208ZM119.274 113.746C117.117 114.15 110.04 116.538 109.945 119.096C109.77 123.746 116.701 118.983 118.206 118.371C122.294 116.71 124.443 120.099 128.55 120.278C132.117 120.434 135.397 117.381 138.757 117.742C142.278 118.12 143.971 121.865 148.035 119.877C150.185 118.825 150.131 117.203 147.718 117.05C146.259 116.958 145.256 117.561 143.735 116.933C141.357 115.952 140.399 114.354 137.552 114.608C135.404 114.8 133.463 116.01 131.366 116.479C126.565 117.552 123.902 112.879 119.274 113.746" fill="#7D95E8"/>
<path fill-rule="evenodd" clip-rule="evenodd" d="M163.929 119.227C163.781 119.289 163.781 119.289 163.929 119.227ZM164.478 117.291C164.501 117.301 164.664 117.527 164.478 117.291ZM162.002 115.813C161.909 115.884 161.909 115.884 162.002 115.813ZM162.052 115.794C162.531 116.081 166.385 118.716 163.586 119.337C162.165 119.652 160.989 116.793 162.052 115.794M160.779 112.876C154.605 115.691 161.249 125.764 166.094 121.671C168.132 119.949 168.401 116.468 166.417 114.674C165.229 113.598 162.392 112.139 160.779 112.876" fill="#7D95E8"/>
<path fill-rule="evenodd" clip-rule="evenodd" d="M102.82 152.57C95.1169 152.572 87.3458 152.41 79.6526 152.867C78.3579 152.944 73.4259 152.698 72.7589 154.051C71.5385 156.527 76.6132 155.298 77.3505 155.223C92.6684 153.69 108.669 154.572 124.038 155.009C136.607 155.367 149.109 155.589 161.663 156.236C164.963 156.407 168.26 156.595 171.557 156.794C172.632 156.859 175.337 157.571 175.564 155.854C175.773 154.266 172.399 154.624 171.556 154.58C164.853 154.227 158.154 153.857 151.453 153.48C135.323 152.571 118.976 152.567 102.82 152.57" fill="#7D95E8"/>
<path fill-rule="evenodd" clip-rule="evenodd" d="M72.5194 155.324C71.0805 156.754 71.755 162.216 71.7149 164.021C71.6446 167.179 71.4956 170.333 71.4287 173.49C71.3592 176.789 71.4558 180.103 71.6509 183.398C71.7327 184.781 72.868 191.466 74.6554 187.64C75.454 185.931 74.6361 181.169 74.6484 179.232C74.6703 175.706 74.8602 172.196 75.0356 168.675C75.1865 165.649 75.192 162.62 75.3243 159.592C75.3663 158.627 75.4804 152.354 72.5194 155.324" fill="#7D95E8"/>
<path fill-rule="evenodd" clip-rule="evenodd" d="M176.868 183.525C169.371 184.293 161.754 183.93 154.228 184.498C147.743 184.987 141.263 185.187 134.76 185.324C120.036 185.635 105.287 185.938 90.605 187.165C87.259 187.445 83.9171 187.742 80.5621 187.892C78.8843 187.966 71.8437 187.203 71.3194 188.972C70.4264 191.984 77.9557 190.792 79.5796 190.745C83.1508 190.641 86.7053 190.383 90.2664 190.112C105.236 188.972 120.264 188.631 135.266 188.156C143.425 187.899 151.527 187.302 159.668 186.759C163.726 186.488 167.794 186.479 171.852 186.217C172.913 186.148 176.671 186.284 177.435 185.429C177.96 184.843 178.092 183.411 176.868 183.525" fill="#7D95E8"/>
<path fill-rule="evenodd" clip-rule="evenodd" d="M174.322 155.836C174.579 163.025 174.986 170.209 175.228 177.398C175.301 179.56 174.648 183.435 175.852 185.342C177.788 188.407 179.299 185.163 179.653 183.252C180.772 177.223 179.569 170.563 179.257 164.496C179.138 162.182 179.857 157.03 178.738 154.959C177.673 152.986 174.227 153.184 174.322 155.836" fill="#7D95E8"/>
<path fill-rule="evenodd" clip-rule="evenodd" d="M161.732 166.076C164.604 166.854 165.024 173.099 161.783 173.561C156.959 174.248 159.069 167.364 161.732 166.076M160.927 163.592C160.051 163.564 158.029 163.323 157.489 164.036C157.037 164.633 157.493 165.892 157.441 166.46C157.251 168.492 155.599 169.665 156.337 172.064C156.839 173.692 158.181 175.221 159.817 175.787C168.449 178.771 168.344 162.091 160.927 163.592" fill="#7D95E8"/>
<path fill-rule="evenodd" clip-rule="evenodd" d="M82.9992 164.712C82.9776 164.739 82.9561 164.767 82.9349 164.794C82.9561 164.767 82.9776 164.739 82.9992 164.712M89.7778 161.105C89.744 160.816 89.7102 160.527 89.6764 160.238C94.3568 162.448 98.0811 166.557 96.5271 172.074C95.3412 176.282 91.0569 177.775 87.0654 176.736C82.647 175.585 80.5355 171.943 81.7268 167.471C82.2765 165.408 83.9643 162.635 86.1461 161.972C87.1617 161.663 89.4077 162.45 89.7778 161.105M87.0337 159.357C85.8497 159.437 84.6974 159.93 83.7312 160.605C84.6357 159.839 85.8412 159.384 87.0337 159.357M87.0726 156.64C84.148 156.729 82.2316 158.5 80.4969 160.626C79.9525 161.294 78.1119 163.063 78.3397 163.962C78.52 164.673 78.9915 165.713 79.9845 164.92C74.7838 175.286 88.2191 184.126 96.4209 176.918C104.075 170.192 96.4811 156.325 87.0726 156.64" fill="#7D95E8"/>
<path fill-rule="evenodd" clip-rule="evenodd" d="M84.418 166.267C84.418 167.647 86.5607 167.647 86.5607 166.267C86.5607 164.886 84.418 164.886 84.418 166.267" fill="#7D95E8"/>
<path fill-rule="evenodd" clip-rule="evenodd" d="M88.0742 166.504C88.0742 167.907 90.2515 167.907 90.2515 166.504C90.2515 165.101 88.0742 165.101 88.0742 166.504" fill="#7D95E8"/>
<path fill-rule="evenodd" clip-rule="evenodd" d="M89.7313 171.431C88.7128 171.514 84.9844 171.168 84.33 172.06C83.2363 173.551 84.9818 173.603 85.8391 173.764C86.6113 173.909 89.9681 173.827 90.4411 173.141C90.8592 172.535 90.7615 171.344 89.7313 171.431" fill="#7D95E8"/>
<path fill-rule="evenodd" clip-rule="evenodd" d="M134.65 167.564C134.475 167.636 134.475 167.636 134.65 167.564ZM120.562 166.533C118.267 166.702 116.323 168.022 114.128 168.549C111.786 169.111 110.772 168.077 108.643 167.4C106.427 166.695 104.851 166.974 103.07 168.487C102.061 169.344 99.8477 171.318 100.478 172.841C101.922 176.327 105.191 170.655 106.728 170.391C109.127 169.98 111.261 172.077 114.026 171.477C116.532 170.934 118.756 169.213 121.374 169.194C123.563 169.179 125.625 170.376 127.786 170.666C131.085 171.109 133.251 169.937 136.301 169.068C138.945 168.314 140.799 169.308 143.287 170.144C144.423 170.526 148.216 171.916 147.518 169.396C147.321 168.685 142.322 167.412 141.547 167.167C138.815 166.304 137.084 166.64 134.481 167.633C132.31 168.461 130.484 168.864 128.156 168.409C125.592 167.907 123.259 166.328 120.562 166.533" fill="#7D95E8"/>
</g>
<g opacity="0.5">
<path fill-rule="evenodd" clip-rule="evenodd" d="M226.164 50.994C226.534 43.0248 227.044 35.0669 227.312 27.0929C227.445 23.1416 227.55 19.1899 227.65 15.2378C227.673 14.3578 227.696 13.4781 227.715 12.5981C227.781 9.60845 227.426 9.36386 230.435 9.09848C243.857 7.91375 257.332 7.52106 270.77 6.44916C286.976 5.15642 303.268 4.26379 319.52 3.86368C326.743 3.68552 333.996 3.31659 341.219 3.54114C342.82 3.59088 345.962 3.17444 346.592 4.41856C346.864 4.956 346.293 6.80547 346.22 7.42568C345.994 9.36312 345.783 11.3072 345.652 13.2543C344.884 24.7379 345.342 36.511 347.566 47.8206C342.349 44.8791 335.759 42.349 329.679 42.8511C323.48 43.363 318.844 46.9443 313.882 50.2405C311.076 52.1048 310.13 52.5951 307.33 50.7891C304.918 49.2324 302.635 47.4527 300.359 45.7061C296.846 43.0104 293.531 40.0875 290.124 37.2615C283.861 32.0653 275.231 24.6693 266.581 26.8468C260.4 28.4027 254.693 31.7996 249.328 35.124C241.358 40.063 234.144 46.1114 226.164 50.994M333.58 0.0016943C302.786 0.0016943 272.223 2.98691 241.516 4.60182C238.31 4.77032 235.114 5.01863 231.918 5.32706C229.788 5.53268 224.58 4.66937 223.184 6.48915C222.253 7.70321 223.053 7.88545 223.184 9.039C223.349 10.4928 223.251 12.2154 223.209 13.7542C223.106 17.462 222.999 21.1695 222.914 24.8778C222.596 38.8927 222.398 52.905 222.965 66.9161C223.089 69.9719 224.202 74.2027 223.593 77.172C223.152 79.3217 221.678 80.63 225.078 81.0272C228.424 81.4184 232.514 80.4237 235.863 80.1052C239.231 79.7845 242.599 79.4368 245.971 79.1588C260.632 77.9507 275.435 78.1333 290.135 77.7317C304.967 77.3267 319.804 77.3008 334.641 77.2926C340.849 77.2892 347.943 77.6381 354 75.9297C356.131 75.3284 356.476 75.0322 355.95 72.9178C355.85 72.5165 355.207 72.3684 355.018 71.6432C354.761 70.6563 354.893 69.4567 354.833 68.4294C354.637 65.0741 354.569 61.7129 354.411 58.3554C354.147 52.7457 353.18 47.3016 352.465 41.7483C351.639 35.3351 351.682 28.8235 351.665 22.3684C351.655 18.7878 351.747 15.2191 352.035 11.6486C352.219 9.35857 353.347 5.93947 352.775 3.80383C352.49 2.74046 352.024 1.89719 350.917 1.43956C350.216 1.14931 349.626 1.37646 348.933 1.30297C348.111 1.21575 347.598 1.10032 346.613 0.877254C342.393 -0.079218 337.881 0.0016943 333.58 0.0016943" fill="#7D95E8"/>
<path fill-rule="evenodd" clip-rule="evenodd" d="M316.539 15.2476C316.537 17.4793 316.188 20.7726 317.217 22.8741C318.522 25.5398 320.155 24.7065 320.588 22.2016C320.835 20.7663 320.829 16.5188 320.368 15.2476C319.716 13.4482 316.539 12.2226 316.539 15.2476" fill="#7D95E8"/>
<path fill-rule="evenodd" clip-rule="evenodd" d="M320.283 16.1098C318.187 16.1837 312.086 15.6807 310.668 17.3654C308.236 20.2549 312.47 20.7667 314.287 20.6049C316.39 20.4178 322.89 20.8743 324.299 19.1878C326.655 16.3663 321.93 16.0497 320.283 16.1098" fill="#7D95E8"/>
<path fill-rule="evenodd" clip-rule="evenodd" d="M238.979 90.6666C248.19 92.2666 245.325 106.31 236.609 103.058C233.572 101.924 229.097 98.649 230.776 94.7901C232.03 91.907 236.116 90.3919 238.979 90.6666M235.17 86.3005C229.179 87.3089 225.084 93.7916 227.138 99.4461C229.119 104.901 236.634 108.896 242.177 106.936C247.468 105.064 250.107 98.0242 248.324 92.8744C246.46 87.4938 240.388 85.422 235.17 86.3005" fill="#7D95E8"/>
<path fill-rule="evenodd" clip-rule="evenodd" d="M291.193 92.3108C288.9 92.5012 286.918 94.1068 284.611 94.3911C282.453 94.6569 280.665 93.9187 278.645 93.3285C276.203 92.6155 273.963 92.3019 271.468 92.9355C269.561 93.4198 267.68 94.7174 265.699 94.874C261.801 95.1817 257.271 90.7345 254.228 95.7644C252.769 98.1758 254.887 99.7291 257.069 98.6045C259.344 97.4324 258.227 97.0126 261.049 97.7052C263.404 98.2824 265.306 98.596 267.665 97.7869C269.801 97.0542 271.677 95.7132 273.998 95.5625C276.272 95.4152 278.25 96.4507 280.423 96.8976C283.096 97.4469 285.46 97.0312 287.993 96.1935C290.401 95.3966 291.362 94.9609 293.793 95.6716C295.332 96.1219 298.694 97.5519 300.191 96.3995C302.782 94.4071 299.314 94.1157 297.948 93.8326C295.75 93.3771 293.475 92.1241 291.193 92.3108" fill="#7D95E8"/>
<path fill-rule="evenodd" clip-rule="evenodd" d="M343.666 90.9711C343.685 90.9852 343.703 90.9993 343.721 91.0134C343.703 90.9993 343.684 90.9852 343.666 90.9711M341.42 90.5007C344.768 90.7164 348.389 96.8152 343.952 97.0316C340.83 97.1841 337.337 91.8436 341.42 90.5007M340.948 85.5103C330.362 88.4666 335.201 103.392 345.413 101.668C350.051 100.885 351.623 95.5111 350.089 91.5334C349.431 89.825 348.147 88.3845 346.612 87.4014C345.48 86.6761 342.242 85.1499 340.948 85.5103" fill="#7D95E8"/>
<path fill-rule="evenodd" clip-rule="evenodd" d="M291.557 116.666C300.873 116.347 310.189 116.027 319.515 115.941C324.569 115.894 329.595 115.982 334.642 116.272C336.88 116.4 339.117 116.524 341.356 116.619C341.742 116.635 342.276 116.609 342.866 116.58C344.252 116.512 345.945 116.428 346.741 116.849C351.196 119.206 342.12 119.465 341.016 119.446C338.546 119.405 336.077 119.282 333.609 119.16C331.452 119.054 329.295 118.947 327.136 118.894C313.283 118.554 299.346 119.176 285.47 119.796L285.47 119.796C282.289 119.938 279.111 120.08 275.939 120.21C272.57 120.348 269.202 120.438 265.835 120.527C261.021 120.655 256.208 120.783 251.394 121.053C249.556 121.157 247.718 121.266 245.88 121.375L245.88 121.375L245.88 121.375C243.248 121.532 240.615 121.689 237.981 121.827C235.919 121.936 233.857 122.042 231.792 122.094C231.42 122.103 230.936 122.155 230.407 122.211C229.127 122.348 227.587 122.512 226.755 122.172C225.754 121.763 224.944 121.19 225.495 119.977C225.96 118.952 227.651 119.075 228.885 119.164C229.221 119.189 229.524 119.211 229.758 119.206C233.699 119.13 237.631 118.909 241.565 118.668C243.004 118.58 244.443 118.489 245.881 118.399C253.371 117.928 260.853 117.457 268.361 117.329C276.096 117.197 283.826 116.932 291.557 116.666ZM340.211 177.98L342.889 177.947C344.273 178.068 344.891 179.519 344.003 180.635C343.323 181.49 340.707 181.529 339.001 181.554H339.001C338.528 181.561 338.126 181.567 337.854 181.589C333.401 181.946 328.957 182.108 324.491 182.15C315.086 182.24 305.717 182.643 296.328 183.178C286.716 183.726 277.097 183.932 267.477 184.138C260.399 184.29 253.321 184.442 246.246 184.729C242.195 184.894 238.143 185.017 234.089 185.124C233.654 185.135 233.074 185.198 232.419 185.268C229.859 185.545 226.138 185.947 225.295 183.913C224.547 182.108 225.588 181.277 227.109 180.9C226.869 179.831 226.914 178.33 226.939 177.469C226.947 177.211 226.953 177.01 226.949 176.897C226.91 175.818 226.884 174.739 226.857 173.661C226.827 172.438 226.797 171.216 226.75 169.994C226.707 168.885 226.667 167.775 226.627 166.665C226.471 162.284 226.313 157.894 225.976 153.531C225.821 151.518 225.574 149.528 225.328 147.541C224.934 144.369 224.542 141.206 224.524 137.967C224.521 137.385 224.491 136.656 224.459 135.835C224.29 131.631 224.024 124.984 226.634 122.96C231.235 120.275 230.326 128.025 229.92 131.484C229.853 132.055 229.799 132.509 229.787 132.78C229.523 138.531 229.881 144.029 230.46 149.744C230.851 153.604 230.623 157.451 230.394 161.304C230.312 162.68 230.231 164.057 230.177 165.436C230.151 166.118 230.127 166.799 230.104 167.481C230.031 169.579 229.959 171.674 229.801 173.77C229.784 173.997 229.778 174.431 229.771 174.987C229.75 176.554 229.717 179.081 229.382 180.615C230.095 180.584 230.787 180.592 231.359 180.598C231.724 180.602 232.04 180.606 232.281 180.598C233.38 180.565 234.478 180.533 235.576 180.501C238.821 180.406 242.066 180.311 245.31 180.189C252.968 179.901 260.629 179.805 268.289 179.708H268.29H268.29H268.29C277.338 179.595 286.385 179.481 295.429 179.051C310.334 178.343 325.291 178.161 340.211 177.98ZM342.973 121.753C342.965 131.605 343.727 141.187 344.617 150.999C345.167 157.069 345.609 163.162 345.96 169.246C345.976 169.528 345.974 169.998 345.971 170.587C345.953 173.952 345.915 181.202 349.24 179.468C351.751 178.158 350.786 170.565 350.252 166.363C350.135 165.442 350.038 164.683 350.004 164.19C349.931 163.144 349.859 162.098 349.788 161.053L349.787 161.038L349.787 161.037C349.452 156.16 349.118 151.286 348.678 146.414L348.586 145.387V145.387C348.076 139.759 347.567 134.136 347.477 128.482C347.469 128.015 347.514 127.363 347.565 126.628V126.628C347.712 124.499 347.908 121.665 347.024 120.534C345.78 118.944 342.976 119.414 342.973 121.753Z" fill="#7D95E8"/>
<path fill-rule="evenodd" clip-rule="evenodd" d="M291.988 145.907C303.887 140.524 315.925 135.077 328.298 131.2C329.193 130.92 329.758 131.842 329.555 132.616C329.346 133.413 327.41 134.094 326.127 134.545C325.743 134.68 325.417 134.794 325.213 134.885C323.485 135.657 321.752 136.42 320.019 137.182C318.245 137.963 316.47 138.743 314.701 139.534C311.02 141.179 307.337 142.816 303.653 144.453C299.709 146.206 295.764 147.959 291.824 149.721C291.674 149.788 291.524 149.855 291.374 149.922C296.731 151.826 302.058 153.815 307.362 155.864C309.174 156.564 310.981 157.279 312.787 157.993C313.809 158.398 314.831 158.802 315.855 159.204C316.188 159.335 316.768 159.512 317.465 159.725C319.737 160.418 323.251 161.491 323.51 162.575C323.933 164.341 319.082 162.633 317.251 161.988C317.008 161.903 316.819 161.836 316.702 161.799C314.001 160.936 311.332 159.974 308.665 159.012L308.296 158.879C306.182 158.118 304.071 157.348 301.96 156.578C297.836 155.075 293.713 153.571 289.568 152.129C288.982 151.925 288.396 151.722 287.81 151.519C281.158 154.507 274.518 157.524 267.901 160.589C264.352 162.232 260.823 163.914 257.303 165.619C256.535 165.991 255.583 166.566 254.55 167.19C252.073 168.687 249.124 170.469 247.096 170.425C246.008 170.401 245.275 170.168 245.162 168.849C245.045 167.489 246.79 166.776 248.045 166.263C248.346 166.14 248.618 166.028 248.83 165.923C252.592 164.041 256.377 162.207 260.173 160.396C267.713 156.8 275.323 153.348 282.96 149.964C283.004 149.945 283.047 149.925 283.091 149.906C278.854 148.472 274.606 147.073 270.349 145.703C269.924 145.566 269.052 145.325 267.907 145.007C262.496 143.509 250.968 140.316 251.481 138.451C252.07 136.318 262.877 140.217 267.662 141.943C268.558 142.267 269.244 142.514 269.61 142.631C275.331 144.454 281.037 146.329 286.712 148.289C288.468 147.5 290.226 146.704 291.988 145.907Z" fill="#7D95E8"/>
<path fill-rule="evenodd" clip-rule="evenodd" d="M240.997 192.761C244.481 193.372 246.937 196.713 246.555 200.212C246.039 204.94 241.327 207.107 236.974 206.49C232.034 205.79 230.996 201.614 233.389 197.597C233.918 196.708 234.528 195.644 235.491 195.176C236.153 194.854 236.996 195.138 237.53 194.879C239.399 193.969 238.275 192.52 240.997 192.761M239.412 189.673C235.162 190.216 227.308 195.135 227.706 200.055C228.051 200.626 228.57 200.859 229.262 200.756C229.095 201.822 229.15 202.876 229.425 203.919C229.829 205.274 230.634 206.384 231.713 207.266C233.936 209.082 236.974 209.528 239.742 209.21C244.91 208.615 248.983 205.083 249.273 199.708C249.557 194.462 244.977 188.97 239.412 189.673" fill="#7D95E8"/>
<path fill-rule="evenodd" clip-rule="evenodd" d="M260 196.077C258.093 197.088 255.076 198.64 253.958 200.56C252.776 202.587 254 204.805 256.489 203.846C258.465 203.085 259.722 200.666 261.83 199.89C263.69 199.206 264.439 199.555 266.405 200.236C268.431 200.938 270.202 201.617 272.392 201.444C275.144 201.228 277.528 199.632 280.222 199.269C282.49 198.963 284.361 199.846 286.533 200.197C289.054 200.604 290.701 199.65 293.06 199.154C294.664 198.815 297.491 200.191 298.661 199.676C301.291 198.52 298.508 197.106 297.052 196.638C294.599 195.851 293.089 196.546 290.756 197.198C288.223 197.907 287.129 197.374 284.707 196.724C279.808 195.407 276.023 198.59 271.379 198.012C267.079 197.476 264.507 193.691 260 196.077" fill="#7D95E8"/>
<path fill-rule="evenodd" clip-rule="evenodd" d="M340.116 193.722C344.832 198.144 339.535 204.434 334.335 200.901C332.505 199.657 332.476 197.659 333.9 195.872C335.202 194.238 338.064 193.6 340.116 193.722V193.722ZM338.368 190.149C333.962 191.006 329.807 193.028 329.408 198.113C329.018 203.074 334.107 205.378 338.382 205.053C347.98 204.322 347.286 188.425 338.368 190.149V190.149Z" fill="#7D95E8"/>
</g>
<g opacity="0.5">
<path fill-rule="evenodd" clip-rule="evenodd" d="M72.4324 223.357C65.6897 223.432 58.9503 223.681 52.2209 224.107C45.8215 224.512 38.878 224.205 32.5828 225.445C30.7952 225.797 28.3806 227.426 30.7574 229.218C32.428 230.478 38.5403 229.029 40.5353 228.906C47.8821 228.455 55.2327 227.914 62.59 227.654C69.555 227.408 76.5196 227.321 83.488 227.251C84.5519 227.241 86.3179 226.9 87.3774 227.209C88.8996 227.653 88.5385 227.773 88.6524 229.706C88.8591 233.207 88.802 236.72 88.7326 240.225C88.6654 243.616 88.54 247.006 88.5522 250.399C88.5608 252.819 87.7871 257.629 89.0016 259.731C90.7498 262.757 92.5634 259.471 92.694 257.46C92.9441 253.614 92.832 249.722 92.8332 245.871C92.8339 242.257 92.8599 238.643 92.7326 235.031C92.6402 232.421 93.0131 227.866 91.6074 225.494C90.1758 223.078 86.7287 223.599 84.2134 223.483C80.2899 223.303 76.3593 223.316 72.4324 223.357" fill="#7D95E8"/>
<path fill-rule="evenodd" clip-rule="evenodd" d="M29.5327 227.717C29.5402 234.507 28.7546 241.253 28.5345 248.036C28.4336 251.154 28.2287 254.579 29.0177 257.64C29.814 260.731 32.3434 261.401 32.6347 257.95C33.2247 250.962 33.08 243.716 33.5394 236.672C33.7016 234.185 34.757 229.628 33.7717 227.299C32.9041 225.247 29.529 224.854 29.5327 227.717" fill="#7D95E8"/>
<path fill-rule="evenodd" clip-rule="evenodd" d="M92.7611 257.651C81.0513 259.201 68.8097 258.636 57.0165 258.879C51.3584 258.996 45.7015 259.004 40.0428 259.063C38.0678 259.083 33.0525 258.332 31.344 259.442C28.6243 261.21 31.5752 262.573 33.3757 262.612C44.543 262.857 55.8345 262.344 66.9996 261.977C72.016 261.813 77.0487 261.732 82.0518 261.306C85.1318 261.043 88.4976 260.789 91.4886 259.961C92.1258 259.785 93.5133 259.821 93.6561 258.952C93.7441 258.414 93.5845 257.537 92.7611 257.651" fill="#7D95E8"/>
<path fill-rule="evenodd" clip-rule="evenodd" d="M44.0725 267.522C40.818 267.541 31.0108 266.029 29.663 269.203C27.8662 273.435 34.8757 272.447 36.7609 272.399C41.0425 272.289 45.3212 272.277 49.6039 272.279C53.8062 272.281 58.008 272.254 62.2095 272.154C63.4267 272.125 66.26 272.63 66.9602 271.164C67.4924 270.05 67.0719 269.171 66.0904 268.582C63.7288 267.162 57.5935 267.985 54.8285 267.858C51.2486 267.693 47.6568 267.522 44.0725 267.522" fill="#7D95E8"/>
<path fill-rule="evenodd" clip-rule="evenodd" d="M83.6599 268.304C81.8 268.415 78.0379 267.648 76.3717 268.499C74.478 269.467 75.1453 270.982 76.7803 271.648C77.9125 272.108 82.5571 271.867 83.6599 271.333C84.8096 270.776 86.1095 268.154 83.6599 268.304" fill="#7D95E8"/>
<path fill-rule="evenodd" clip-rule="evenodd" d="M104.052 228.385C102.066 228.93 102.668 240.207 102.617 241.995C102.477 246.893 101.926 253.054 103.554 257.771C104.592 260.778 106.585 260.371 106.246 257.205C105.947 254.426 105.436 251.679 105.214 248.882C104.713 242.553 104.031 235.802 104.504 229.469C104.706 229.836 106.59 233.25 107.034 232.995C106.9 233.075 104.86 228.172 104.052 228.385" fill="#7D95E8"/>
<path fill-rule="evenodd" clip-rule="evenodd" d="M126.396 224.23C122.376 224.29 118.356 224.361 114.337 224.472C111.142 224.561 106.121 224.036 103.19 225.381C99.7007 226.981 101.356 230.547 104.634 230.622C107.533 230.689 110.625 230.035 113.551 229.935C121.453 229.664 129.369 229.607 137.276 229.539C144.426 229.477 151.88 230.24 158.967 229.166C160.019 238.501 157.175 247.875 158.142 257.318C158.292 258.783 158.225 260.854 160.091 261.188C162.447 261.609 162.544 259.276 162.633 257.606C162.888 252.836 162.75 248.063 163.099 243.286C163.423 238.861 164.06 234.337 163.521 229.904C162.859 224.449 160.245 224.886 155.625 224.66C145.865 224.181 136.166 224.087 126.396 224.23" fill="#7D95E8"/>
<path fill-rule="evenodd" clip-rule="evenodd" d="M112.925 257.376C110.877 257.428 107.475 256.797 106.162 258.761C104.796 260.805 106.417 262.587 108.402 263.007C110.753 263.503 113.818 262.823 116.257 262.815C118.798 262.808 121.339 262.836 123.879 262.846C134.771 262.889 145.71 263.054 156.594 262.603C158.114 262.54 162.428 263.05 163.48 261.592C164.414 260.299 163.761 259.139 162.531 258.48C160.514 257.399 156.371 257.81 154.127 257.725C151.356 257.619 148.582 257.585 145.809 257.542C134.867 257.373 123.867 257.106 112.925 257.376" fill="#7D95E8"/>
<path fill-rule="evenodd" clip-rule="evenodd" d="M122.139 266.825C118.063 266.895 113.714 266.716 109.678 267.334C106.13 267.877 105.693 271.308 109.513 271.709C113.023 272.078 117.279 271.388 120.806 271.162C122.059 271.081 123.516 271.196 124.116 269.811C124.743 268.364 123.545 266.976 122.139 266.825" fill="#7D95E8"/>
<path fill-rule="evenodd" clip-rule="evenodd" d="M152.95 267.185C150.775 267.239 144.42 266.304 143.342 268.788C141.548 272.925 150.151 271.354 151.801 271.293C153.881 271.216 161.988 272.431 161.99 269.12C161.992 265.873 154.942 267.135 152.95 267.185" fill="#7D95E8"/>
<path fill-rule="evenodd" clip-rule="evenodd" d="M29.1824 287.743C29.1876 295.269 28.7193 302.866 29.4058 310.372C29.6897 313.477 29.6411 319.424 31.4394 322.057C32.7159 323.925 34.4864 323.794 35.1837 321.55C35.6498 320.051 34.9042 317.051 34.8211 315.447C34.741 313.907 34.6474 312.368 34.5762 310.828C34.3933 306.86 34.4077 302.899 34.4623 298.929C34.509 295.524 35.3288 291.018 34.5558 287.743C33.8351 284.691 29.1824 283.978 29.1824 287.743" fill="#7D95E8"/>
<path fill-rule="evenodd" clip-rule="evenodd" d="M104.814 281.121C91.757 281.449 78.6708 281.156 65.6255 281.803C59.1919 282.121 52.7835 282.821 46.3822 283.519C43.2372 283.862 40.094 284.216 36.9546 284.602C36.0072 284.719 28.1349 285.024 31.0958 288.018C32.3887 289.325 36.503 287.96 38.131 287.767C41.283 287.395 44.4414 287.07 47.5979 286.737C53.6044 286.101 59.6183 285.499 65.6503 285.166C79.8568 284.379 94.1219 284.615 108.343 284.09C112.189 283.948 116.024 283.846 119.873 283.998C120.883 284.038 128.309 284.415 125.085 281.672C123.56 280.375 117.812 281.045 115.907 281.006C112.21 280.929 108.51 281.029 104.814 281.121" fill="#7D95E8"/>
<path fill-rule="evenodd" clip-rule="evenodd" d="M122.619 293.801C122.554 290.323 122.49 286.846 122.331 283.372C122.165 279.713 127.148 279.159 128.627 282.121C129.691 284.253 129.503 287.881 129.343 290.99C129.278 292.243 129.218 293.412 129.246 294.365C129.309 296.548 129.47 298.806 129.633 301.095C130.042 306.852 130.465 312.8 129.389 318.235C128.866 320.877 126.637 322.266 125.154 320.825C125.152 320.828 125.15 320.831 125.147 320.835C124.589 321.657 122.853 321.655 121.574 321.654C121.222 321.653 120.905 321.653 120.656 321.67C117.152 321.908 113.714 322.309 110.242 322.83C103.323 323.867 96.4645 324.505 89.4709 324.678C84.7257 324.795 79.9738 324.834 75.2206 324.874C66.1188 324.949 57.0123 325.025 47.9395 325.647C44.8806 325.858 41.8681 326.218 38.8593 326.794C38.6032 326.843 38.3188 326.906 38.016 326.973C35.7788 327.471 32.5401 328.191 32.3188 325.065C32.0558 321.354 40.0982 320.868 44.2369 320.618C44.8688 320.58 45.4097 320.547 45.8161 320.509C58.3828 319.34 71.1466 319.521 83.7666 319.7C84.3781 319.709 84.9893 319.717 85.6001 319.726C86.5849 319.74 87.5694 319.756 88.5538 319.772C93.9572 319.861 99.3541 319.95 104.756 319.619C107.214 319.469 109.704 319.392 112.199 319.314C116.179 319.191 120.172 319.067 124.065 318.645C124.065 318.645 124.065 318.645 124.065 318.645C123.478 316.369 123.376 313.683 123.279 311.151C123.241 310.165 123.204 309.203 123.14 308.297C122.798 303.471 122.709 298.636 122.619 293.801Z" fill="#7D95E8"/>
<path fill-rule="evenodd" clip-rule="evenodd" d="M133.181 286.053C131.417 286.293 129.946 287.803 130.733 289.718C131.725 292.128 134.68 291.186 136.631 291.034C142.834 290.548 149.311 291.518 155.439 290.786C157.113 290.586 159.541 289.675 158.038 287.426C156.909 285.735 152.793 286.032 151.044 285.87C145.061 285.317 139.156 285.464 133.181 286.053" fill="#7D95E8"/>
<path fill-rule="evenodd" clip-rule="evenodd" d="M143.654 296.57C141.248 296.732 135.648 296.604 134.634 299.342C132.816 304.252 139.938 302.522 142.107 302.243C144.626 301.918 150.565 302.787 151.907 300.344C154.305 295.975 145.763 296.424 143.654 296.57" fill="#7D95E8"/>
<path fill-rule="evenodd" clip-rule="evenodd" d="M137.466 307.346C136.325 308.488 136.323 310.526 137.466 311.668C138.865 313.066 141.914 312.776 143.753 312.878C146.318 313.021 153.683 314.377 154.957 311.358C156.675 307.283 150.005 307.368 147.811 307.137C145.276 306.87 139.567 305.243 137.466 307.346" fill="#7D95E8"/>
<path fill-rule="evenodd" clip-rule="evenodd" d="M47.5664 237.601C47.5664 241.982 54.4082 241.982 54.4082 237.601C54.4082 233.244 47.5664 233.178 47.5664 237.601" fill="#7D95E8"/>
<path fill-rule="evenodd" clip-rule="evenodd" d="M60.5391 237.651C60.5391 242.659 68.332 242.649 68.332 237.651C68.332 232.66 60.5391 232.609 60.5391 237.651" fill="#7D95E8"/>
<path fill-rule="evenodd" clip-rule="evenodd" d="M52.6926 244.31C48.9045 245.356 52.3942 248.566 54.1532 249.299C56.9486 250.465 60.7638 251.324 63.56 249.576C64.6725 248.881 65.5758 247.957 64.7605 246.607C63.8917 245.17 62.7024 245.809 61.3798 245.942C59.7044 246.11 58.3502 246.084 56.7323 245.547C55.5248 245.146 54.0096 243.947 52.6926 244.31" fill="#7D95E8"/>
<path fill-rule="evenodd" clip-rule="evenodd" d="M121.398 237.877C121.398 240.84 125.999 240.84 125.999 237.877C125.999 234.915 121.398 234.915 121.398 237.877" fill="#7D95E8"/>
<path fill-rule="evenodd" clip-rule="evenodd" d="M131.578 238.324C131.578 241.616 136.689 241.616 136.689 238.324C136.689 235.031 131.578 235.032 131.578 238.324" fill="#7D95E8"/>
<path fill-rule="evenodd" clip-rule="evenodd" d="M131.192 245.47C128.507 245.816 120.742 246.603 120.307 249.912C119.637 255.018 128.145 250.886 130.087 250.485C132.56 249.974 134.769 250.108 137.238 250.207C138.594 250.261 140.397 250.481 140.255 248.416C140.022 245.025 133.538 245.169 131.192 245.47" fill="#7D95E8"/>
<path fill-rule="evenodd" clip-rule="evenodd" d="M63.6941 292.554C61.7481 293.073 59.2025 296.437 60.5413 298.496C62.7367 301.873 63.7049 296.688 64.6237 296.189C66.2955 295.281 67.6526 298.599 69.3997 296.859C72.1565 294.112 65.4297 292.089 63.6941 292.554" fill="#7D95E8"/>
<path fill-rule="evenodd" clip-rule="evenodd" d="M85.9901 290.056C83.6823 290.077 78.8103 293.345 78.4651 295.757C78.2603 297.191 79.2107 298.568 80.7559 298.587C82.86 298.613 83.5287 295.877 85.3526 295.305C87.3201 294.688 87.0281 296.109 88.7273 296.845C89.9708 297.385 91.5261 297.159 91.958 295.63C92.7729 292.746 88.3614 290.011 85.9901 290.056" fill="#7D95E8"/>
<path fill-rule="evenodd" clip-rule="evenodd" d="M68.329 303.87C64.6378 306.033 70.7114 310.669 72.817 311.249C75.9958 312.124 82.3934 310.491 83.1467 306.608C83.4466 305.063 82.4799 303.663 80.7743 303.94C79.3701 304.168 78.4695 305.929 77.1688 306.56C75.4132 307.411 73.8524 307.353 72.3606 306.072C71.1453 305.028 70.4944 302.607 68.329 303.87" fill="#7D95E8"/>
<path fill-rule="evenodd" clip-rule="evenodd" d="M71.003 335.831C67.7051 336.534 64.3526 336.062 61.0388 336.723C57.6596 337.398 55.6402 338.674 52.5007 337.388C52.353 337.326 52.2057 337.263 52.0584 337.201C49.6285 336.155 47.0817 335.845 44.5382 337.513C43.0331 338.5 38.4638 341.914 39.0145 343.997C40.208 348.514 45.3494 341.432 46.6605 340.741C49.1605 339.425 50.8746 341.107 53.4485 341.581C56.5315 342.15 59.0123 340.52 61.9164 339.872C65.313 339.113 69.1341 338.848 72.5897 338.442C73.955 338.282 79.1261 339.362 79.593 337.663C80.3949 334.744 72.2992 335.555 71.003 335.831" fill="#7D95E8"/>
<path fill-rule="evenodd" clip-rule="evenodd" d="M94.7966 344.927C95.0122 345.09 94.8393 344.959 94.7966 344.927ZM104.031 335.654C106.855 335.368 115.888 333.351 117.743 336.268C118.95 338.169 117.033 345.182 115.205 346.089C113.743 346.814 110.338 346.013 108.734 345.956C105.75 345.851 102.759 345.804 99.7784 345.618C98.7787 345.556 95.5617 345.739 94.7779 344.855C93.8524 343.81 93.8936 338.24 93.6758 336.859C96.2716 337.699 101.317 335.93 104.031 335.654M110.061 332.794C106.445 332.95 102.83 333.222 99.2414 333.707C97.2409 333.977 95.214 334.696 93.3663 335.037C92.7707 335.147 91.804 334.842 91.0737 335.195C88.9396 336.226 90.8084 343.197 91.3231 345.059C92.1135 347.92 94.1029 348.383 96.8902 348.653C100.562 349.009 104.309 348.897 107.992 348.852C111.542 348.808 116.329 349.595 118.321 346.033C119.609 343.73 120.99 338.366 119.889 335.799C118.441 332.422 113.035 332.669 110.061 332.794" fill="#7D95E8"/>
<path fill-rule="evenodd" clip-rule="evenodd" d="M150.555 346.842C150.362 347.091 150.362 347.091 150.555 346.842ZM151.345 345.889C151.285 345.979 151.007 346.272 151.345 345.889ZM142.724 345.627C144.318 345.327 145.912 345.03 147.508 344.739C145.997 346.855 144.406 345.98 141.824 345.796C142.124 345.74 142.424 345.683 142.724 345.627M135.12 344.876C135.524 344.741 135.928 344.606 136.332 344.471C136.32 344.778 136.386 345.066 136.53 345.334C135.839 345.26 135.148 345.179 134.457 345.094C134.678 345.022 134.899 344.949 135.12 344.876M131.592 342.276C131.569 341.721 132.404 342.102 132.882 342.065C131.96 342.877 131.53 342.947 131.592 342.276M144.194 335.981C144.315 335.826 144.476 335.834 144.676 336.004C144.458 336.077 143.617 336.434 144.194 335.981M152.367 335.02C152.388 335.02 152.842 335.633 152.367 335.02ZM152.14 334.82C152.259 334.911 152.259 334.911 152.14 334.82ZM151.118 334.699C152.789 334.981 152.662 336.942 151.118 334.699ZM131.484 334.565C131.144 334.847 131.26 334.574 131.484 334.565ZM137.878 330.391C135.041 330.556 129.834 330.39 127.464 331.901C124.372 333.875 125.999 340.666 126.276 343.644C126.685 348.045 128.756 349.298 132.9 349.76C137.847 350.311 142.929 350.414 147.9 350.283C152.378 350.166 154.928 348.625 155.748 343.911C156 342.469 156.637 340.237 156.617 338.855C156.603 337.897 156.126 337.46 155.945 336.645C154.917 332.005 153.197 331.455 148.442 331.253C144.941 331.104 141.313 330.211 137.878 330.391" fill="#7D95E8"/>
</g>
<g opacity="0.5">
<path fill-rule="evenodd" clip-rule="evenodd" d="M288.159 223.799C295.372 223.953 303.556 227.945 302.415 236.402C301.58 242.597 296.216 247.627 290.004 248.06C283.327 248.526 276.267 243.402 275.36 236.603C274.34 228.957 281.106 223.647 288.159 223.799M284.622 220.357C281.698 220.794 278.904 222.33 276.329 223.705C275.347 224.23 270.364 227.433 274.272 228.228C264.855 243.415 287.016 257.521 299.476 247.651C305.071 243.219 308.017 234.815 304.4 228.238C300.659 221.434 291.789 219.281 284.622 220.357" fill="#7D95E8"/>
<path fill-rule="evenodd" clip-rule="evenodd" d="M282.906 233.283C282.906 236.12 287.309 236.12 287.309 233.283C287.309 230.447 282.906 230.447 282.906 233.283" fill="#7D95E8"/>
<path fill-rule="evenodd" clip-rule="evenodd" d="M291.066 233.738C291.066 236.813 295.839 236.813 295.839 233.738C295.839 230.663 291.066 230.663 291.066 233.738" fill="#7D95E8"/>
<path fill-rule="evenodd" clip-rule="evenodd" d="M285.559 239.819C284.917 242.152 292.241 243.348 292.485 240.648C292.601 239.358 286.006 238.191 285.559 239.819" fill="#7D95E8"/>
<path fill-rule="evenodd" clip-rule="evenodd" d="M307.032 238.376C315.459 237.365 324.149 237.832 332.617 238.075C334.736 238.136 336.855 238.195 338.975 238.23C340.323 238.253 343.233 238.9 344.409 238.269C349.225 235.686 339.778 234.437 338.44 234.319C330.016 233.625 317.017 233.378 308.569 233.705C306.07 233.802 305.53 238.556 307.032 238.376" fill="#7D95E8"/>
<path fill-rule="evenodd" clip-rule="evenodd" d="M344.949 280.273C345.022 271.443 345.338 262.553 346.017 253.749C346.293 250.16 346.625 246.577 346.9 242.988C347.029 241.298 347.63 238.931 346.636 237.447C345.613 235.919 343.367 235.602 342.013 236.956C340.393 239.053 340.864 242.573 340.663 245.11C340.353 249.01 339.979 252.908 339.793 256.817C339.433 264.383 339.349 272.08 339.957 279.636C340.244 283.201 340.867 286.679 341.695 290.156C342.072 291.739 345.071 298.789 344.441 299.762C343.464 301.269 336.24 300.7 334.673 300.741C330.652 300.85 326.63 300.92 322.608 300.997C319.164 301.062 315.721 301.109 312.277 301.14C310.91 301.152 302.876 300.909 304.658 302.936C284.729 304.325 264.418 302.006 244.61 301.211C243.61 301.171 241.973 300.887 240.462 300.805C240.281 300.075 240.132 299.423 240.095 298.97C239.835 295.786 239.767 292.592 239.485 289.409C238.968 283.586 237.967 277.822 237.371 272.009C236.777 266.202 236.836 260.377 236.49 254.556C236.431 253.558 236.291 245.388 234.229 243.403C235.206 243.774 236.783 243.822 237.69 243.749C245.038 243.156 252.333 241.879 259.617 240.783C261.702 240.47 266.431 240.692 268.16 239.65C269.656 238.748 270.248 235.586 267.645 235.842C260.381 236.62 253.157 237.828 245.95 239.017C244.022 239.335 242.099 239.675 240.177 240.022C238.893 240.254 235.504 240.236 234.508 241.01C233.299 241.95 233.17 242.589 233.58 243.014C233.011 242.858 232.328 243.104 231.507 243.925C229.957 245.943 231.415 250.914 231.599 253.281C231.822 256.12 231.931 258.963 232.06 261.808C232.31 267.311 232.886 272.739 233.771 278.176C234.764 284.268 235.608 290.384 236.603 296.474C236.862 298.059 237.199 299.605 237.63 301.137C234.95 302.508 236.772 304.688 238.898 305.075C238.913 305.078 238.929 305.08 238.944 305.082C239.607 306.699 240.534 308.196 241.257 306.03C241.313 305.864 241.339 305.66 241.345 305.43C246.835 306.051 252.87 305.665 258.275 305.886C269.983 306.365 281.764 307.083 293.484 306.719C298.123 306.575 302.777 306.163 307.378 305.544C310.074 305.181 312.78 304.748 315.432 304.147C315.622 304.104 315.911 304.059 316.245 304.004C316.299 304.003 316.354 304.001 316.406 304C320.467 303.939 324.525 303.83 328.584 303.661C331.99 303.52 335.411 303.447 338.807 303.126C340.916 302.926 345.373 302.963 346.668 300.842C347.845 298.914 345.877 293.946 345.597 291.78C345.106 287.966 344.918 284.116 344.949 280.273" fill="#7D95E8"/>
<path fill-rule="evenodd" clip-rule="evenodd" d="M303.788 254.776C300.543 255.054 297.542 256.578 294.267 256.597C291.518 256.613 288.811 255.791 286.047 255.912C282.805 256.054 281.021 258.151 278.18 258.852C275.919 259.411 274.495 257.679 272.506 256.914C269.995 255.947 268.14 256.446 265.987 257.909C264.406 258.983 260.718 261.395 260.746 263.569C260.831 270.152 268.512 261.057 270.061 260.947C272.118 260.801 274.417 263.146 276.606 263.28C279.5 263.457 281.356 261.591 284.021 260.911C286.716 260.224 289.629 261.066 292.331 261.327C295.414 261.625 298.112 260.938 301.094 260.202C303.984 259.489 306.447 259.527 309.384 260.126C311.366 260.53 316.304 262.88 317.171 259.859C318.352 255.744 306.057 254.583 303.788 254.776" fill="#7D95E8"/>
<path fill-rule="evenodd" clip-rule="evenodd" d="M304.779 267.332C298.13 267.977 291.439 268.543 284.759 268.725C281.866 268.803 270.743 267.563 271.73 271.24C272.575 274.392 287.711 272.407 290.794 272.167C294.197 271.903 297.595 271.533 300.982 271.105C302.182 270.953 305.081 271.11 305.927 270.103C306.735 269.143 306.337 267.176 304.779 267.332" fill="#7D95E8"/>
<path fill-rule="evenodd" clip-rule="evenodd" d="M258.898 284.075C258.747 284.139 258.747 284.139 258.898 284.075ZM260.304 284.056C261.962 284.004 261.606 283.13 263.26 283.585C264.023 283.795 264.101 283.484 264.693 284.213C265.846 285.635 264.76 288.732 263.622 289.878C259.411 294.122 254.358 284.245 260.304 284.056M260.303 279.893C248.775 280.28 253.598 298.088 263.632 294.453C267.776 292.952 270.38 286.188 267.943 282.387C266.757 280.539 265.245 280.21 263.259 280.082C262.798 280.052 262.218 280.722 261.93 280.692C261.246 280.619 261.31 279.855 260.303 279.893" fill="#7D95E8"/>
<path fill-rule="evenodd" clip-rule="evenodd" d="M287.874 284.687C287.668 284.624 291.514 285.742 291.093 285.304C291.991 286.238 290.783 288.446 289.768 288.831C287.308 289.765 285.928 285.941 287.874 284.687M289.579 279.858C285.969 280.369 283.183 281.872 282.69 285.886C282.235 289.591 284.738 293.343 288.687 293.415C297.293 293.573 297.556 278.745 289.579 279.858" fill="#7D95E8"/>
<path fill-rule="evenodd" clip-rule="evenodd" d="M328.875 284.847C329.379 291.426 322.557 285.404 328.875 284.847ZM325.946 277.809C325.35 278.829 325.858 279.911 326.759 280.504C318.712 282.204 320.534 294.314 328.723 292.525C332.887 291.615 333.653 287.236 333.032 283.621C332.737 281.902 328.453 273.524 325.946 277.809" fill="#7D95E8"/>
</g>
<path opacity="0.5" fill-rule="evenodd" clip-rule="evenodd" d="M375.884 294.58C372.163 295.077 363.365 298.163 363.442 301.477C363.561 306.65 371.038 300.999 372.701 300.24C381.636 296.157 393.209 301.447 402.512 302.573C406.778 303.089 415.122 304.043 418.89 301.896C425.59 298.08 410.094 299.035 408.121 298.882C397.394 298.05 386.723 293.127 375.884 294.58" fill="#C1DEE2"/>
<g opacity="0.5">
<path fill-rule="evenodd" clip-rule="evenodd" d="M458.292 252.898C458.29 257.443 458.06 262.082 458.898 266.572C459.151 267.931 459.351 270.535 460.786 271.241C462.226 271.949 463.623 271.153 463.981 269.677C464.398 267.959 463.482 265.387 463.39 263.584C463.262 261.12 463.254 258.653 463.253 256.186C463.252 254.404 463.838 251.538 461.735 250.622C460.171 249.94 458.292 251.207 458.292 252.898" fill="#7D95E8"/>
<path fill-rule="evenodd" clip-rule="evenodd" d="M530.135 245.71C515.077 247.221 499.803 247.535 484.691 248.324C477.705 248.688 469.263 248.223 462.682 250.927C461.46 251.429 457.083 254.224 460.636 255.362C461.744 255.717 462.869 254.524 463.779 254.124C465.293 253.459 467.047 253.253 468.662 252.993C482.394 250.788 496.757 251.172 510.63 250.142C514.185 249.878 517.741 249.606 521.288 249.257C523.823 249.007 529.15 247.181 531.488 248.115C535.485 249.711 535.392 260.084 535.47 263.652C535.511 265.497 533.721 272.12 537.28 271.448C540.13 270.911 539.098 264.031 538.876 262.149C538.293 257.215 537.299 244.984 530.135 245.71" fill="#7D95E8"/>
<path fill-rule="evenodd" clip-rule="evenodd" d="M535.693 271.21C522.614 272.391 509.233 271.232 496.1 271.696C489.216 271.94 482.339 272.328 475.455 272.555C472.477 272.654 469.497 272.658 466.517 272.679C465.093 272.689 458.608 273.553 462.62 276.378C464.396 277.628 470.056 276.621 472.094 276.596C475.155 276.561 478.214 276.433 481.273 276.313C488.359 276.036 495.44 275.653 502.529 275.461C509.31 275.277 516.094 275.238 522.875 275.054C526.25 274.963 529.67 274.859 533.014 274.367C533.768 274.255 536.219 274.167 536.743 273.325C537.238 272.53 536.891 271.094 535.693 271.21" fill="#7D95E8"/>
<path fill-rule="evenodd" clip-rule="evenodd" d="M471.412 261.389C471.341 261.555 471.341 261.555 471.412 261.389ZM477.078 259.668C477.285 259.755 477.285 259.755 477.078 259.668ZM476.806 259.619C479.859 262.73 475.165 266.444 472.305 263.408C469.271 260.185 474.841 259.629 476.806 259.619M473.574 254.912C463.061 256.783 466.783 270.795 476.603 268.77C480.913 267.881 483.379 263.538 481.895 259.366C481.315 257.737 480.052 255.948 478.292 255.434C477.415 255.178 476.639 255.581 475.803 255.487C475.006 255.397 474.563 254.734 473.574 254.912" fill="#7D95E8"/>
<path fill-rule="evenodd" clip-rule="evenodd" d="M513.809 258.856C507.469 258.877 501.128 259.146 494.789 259.266C492.845 259.303 487.848 258.433 487.84 261.498C487.831 264.773 493.398 263.563 495.25 263.519C501.538 263.369 507.842 263.093 514.105 262.495C515.686 262.343 521.163 262.605 521.157 260.453C521.151 258.174 515.087 258.856 513.809 258.856" fill="#7D95E8"/>
<path fill-rule="evenodd" clip-rule="evenodd" d="M528.952 280.234C513.272 280.655 497.616 280.801 481.948 281.604C476.088 281.904 470.236 282.127 464.367 282.127C463.237 282.127 460.961 281.69 459.897 282.402C457.01 284.332 460.298 285.989 462.179 286.094C475.05 286.808 488.107 285.03 500.97 284.629C508.501 284.394 516.033 284.325 523.559 283.942C525.612 283.837 527.666 283.716 529.716 283.557C530.895 283.465 534.012 283.716 534.965 283.026C539.125 280.015 530.354 280.196 528.952 280.234" fill="#7D95E8"/>
<path fill-rule="evenodd" clip-rule="evenodd" d="M457.01 287.9C456.863 291.966 456.848 295.96 457.379 300.003C457.589 301.594 457.685 303.399 459.55 303.803C461.243 304.17 462.102 302.889 462.453 301.469C463.309 298.001 462.555 293.01 462.545 289.407C462.541 287.626 462.539 285.632 460.338 285.229C458.659 284.922 457.074 286.135 457.01 287.9" fill="#7D95E8"/>
<path fill-rule="evenodd" clip-rule="evenodd" d="M545.571 297.702C520.189 299.04 494.841 300.207 469.441 301.281C467.46 301.365 452.071 301.197 457.451 306.564C459.113 308.221 463.394 307.099 465.543 306.993C468.772 306.835 472.003 306.713 475.232 306.549C488.036 305.897 500.873 305.721 513.667 304.99C520.708 304.588 527.733 303.958 534.736 303.138C538.068 302.748 542.203 302.788 545.324 301.483C546.929 300.811 548.661 297.538 545.571 297.702" fill="#7D95E8"/>
<path fill-rule="evenodd" clip-rule="evenodd" d="M530.977 277.079C529.047 279.002 530.039 282.794 530.185 285.17C530.385 288.44 530.628 291.712 531.036 294.964C531.302 297.076 531.161 300.364 532.288 302.189C533.608 304.326 536.514 304.089 537.707 302.025C538.762 300.199 538.228 296.358 538.201 294.334C538.163 291.536 537.989 288.734 537.823 285.942C537.684 283.608 538.213 279.868 536.929 277.871C535.625 275.841 532.786 275.28 530.977 277.079" fill="#7D95E8"/>
<path fill-rule="evenodd" clip-rule="evenodd" d="M472.963 291.995C472.736 292.169 472.736 292.169 472.963 291.995ZM477.471 291.432C481.678 292.278 474.876 297.189 472.726 293.818C472.39 293.292 472.216 292.644 472.755 292.187C473.247 291.769 473.556 292.509 474.021 292.31C474.821 291.967 476.617 291.4 477.471 291.432M476.89 287.4C474.019 287.627 470.07 287.804 468.648 290.683C466.738 294.55 470.005 298.337 473.783 298.925C477.419 299.492 482.848 297.478 483.139 293.237C483.373 289.818 480.121 287.137 476.89 287.4" fill="#7D95E8"/>
<path fill-rule="evenodd" clip-rule="evenodd" d="M500.865 289.446C497.892 289.494 492.048 288.615 489.457 290.064C486.894 291.498 488.037 294.052 490.376 294.663C491.921 295.066 494.447 294.415 496.056 294.349C498.173 294.263 500.291 294.245 502.409 294.215C505.971 294.167 509.531 294.208 513.094 294.208C516.732 294.208 520.432 294.307 524.064 294.04C528.66 293.702 528.536 290.261 524.042 289.83C516.407 289.1 508.524 289.326 500.865 289.446" fill="#7D95E8"/>
<path fill-rule="evenodd" clip-rule="evenodd" d="M493.273 327.984C493.273 329.619 494.724 327.984 494.714 327.984C494.724 327.984 493.273 326.349 493.273 327.984" fill="#7D95E8"/>
<path fill-rule="evenodd" clip-rule="evenodd" d="M460.461 314.825C460.555 319.577 460.616 324.334 460.819 329.082C460.884 330.583 460.453 333.516 462.274 334.281C464.299 335.133 464.929 333.009 465.162 331.57C465.901 327.011 465.177 321.805 465.106 317.192C465.082 315.643 465.417 313.486 463.658 312.714C462.223 312.084 460.432 313.254 460.461 314.825" fill="#7D95E8"/>
<path fill-rule="evenodd" clip-rule="evenodd" d="M538.61 314.897C538.73 315.18 538.73 315.18 538.61 314.897ZM538.78 314.848C538.877 314.889 539.271 315.054 538.78 314.848ZM500.391 311.008C493.095 311.122 485.795 311.209 478.505 311.521C475.393 311.655 472.245 311.762 469.145 312.056C466.948 312.263 461.492 312.35 460.068 314.145C457.128 317.849 463.362 316.839 464.705 316.538C467.148 315.99 469.642 315.815 472.139 315.683C477.555 315.398 482.974 315.245 488.397 315.136C503.104 314.84 517.822 314.885 532.532 314.818C533.956 314.812 536.53 314.239 537.845 314.815C539.163 315.393 539.088 316.812 539.225 318.461C539.408 320.653 537.961 324.833 539.063 326.677C540.773 329.538 543.259 327.109 543.639 325.023C544.164 322.14 543.332 318.679 542.517 315.924C541.368 312.037 539.772 311.882 536.012 311.579C531.619 311.224 527.242 311.009 522.834 310.968C515.355 310.899 507.87 310.892 500.391 311.008" fill="#7D95E8"/>
<path fill-rule="evenodd" clip-rule="evenodd" d="M529.245 330.653C513.422 332.491 497.148 331.408 481.24 331.473C477.371 331.489 473.5 331.52 469.635 331.707C467.594 331.806 462.755 331.243 461.357 332.818C458.409 336.138 463.719 336.62 465.657 336.483C469.577 336.204 473.506 336.077 477.435 336.047C491.276 335.94 505.195 336.586 519.025 335.903C524.819 335.617 530.484 334.626 536.17 333.518C537.43 333.273 546.055 331.633 541.137 329.668C538.23 328.507 532.298 330.297 529.245 330.653" fill="#7D95E8"/>
<path fill-rule="evenodd" clip-rule="evenodd" d="M483.043 324.577C482.933 324.719 482.933 324.719 483.043 324.577ZM482.936 324.553C482.898 324.654 482.782 324.905 482.936 324.553ZM481.939 323.266C481.962 323.295 482.056 323.416 481.939 323.266ZM481.895 323.257C482.276 323.712 482.533 324.219 482.665 324.779C479.386 325.667 478.123 323.015 481.895 323.257M481.689 323.131C481.69 323.132 482.151 323.326 481.689 323.131ZM476.305 319.18C474.184 321.822 472.432 324.902 475.078 327.92C477.443 330.618 482.202 330.967 485.204 329.165C488.296 327.309 488.029 323.401 485.872 320.85C484.483 319.207 483.357 319.253 481.342 318.985C479.97 318.802 477.47 317.736 476.305 319.18" fill="#7D95E8"/>
<path fill-rule="evenodd" clip-rule="evenodd" d="M498.242 324.07C498.242 327.588 513.435 326.074 516.137 326.07C518.401 326.067 532.091 327.316 531.109 323.695C530.301 320.72 516.817 322.199 513.945 322.194C511.463 322.191 498.242 320.486 498.242 324.07" fill="#7D95E8"/>
</g>
<g opacity="0.5">
<path fill-rule="evenodd" clip-rule="evenodd" d="M299.915 357.035C307.523 358.14 315.438 361.718 315.371 370.575C315.316 378.021 309.07 385.946 301.051 385.501C293.834 385.101 287.039 377.209 286.135 370.446C285.667 366.942 286.543 363.169 288.604 360.286C291.305 356.51 295.59 356.516 299.915 357.035M296.32 352.221C290.817 352.251 286.791 354.242 283.385 358.444C282.163 359.95 280.743 361.572 279.813 363.279C278.944 364.873 279.097 368.927 282.077 367.027C281.343 374.875 285.93 382.493 292.524 386.514C299.692 390.886 307.793 390.034 313.758 383.906C319.219 378.297 321.141 368.823 317.146 361.886C313.153 354.952 303.902 352.147 296.32 352.221" fill="#7D95E8"/>
<path fill-rule="evenodd" clip-rule="evenodd" d="M312.815 350.117C309.292 352.7 306.075 356.1 303.403 359.549C300.792 362.92 299.065 367.129 295.928 370.068C294.344 368.342 292.487 363.682 289.327 365.531C286.704 367.065 288.393 369.704 289.67 371.436C292.969 375.91 296.631 377.71 300.861 373.29C304.703 369.276 306.885 363.922 310.477 359.676C312.053 357.814 314.487 355.965 315.742 353.909C316.879 352.045 315.472 348.165 312.815 350.117" fill="#7D95E8"/>
</g>
<g opacity="0.5">
<path fill-rule="evenodd" clip-rule="evenodd" d="M445.951 70.0941C445.956 70.4461 445.961 70.7773 445.968 71.0817C446.133 77.7285 446.037 84.7161 445.497 91.3474C445.311 93.6369 443.645 96.5389 441.745 93.3828C440.91 91.995 441.027 89.1452 441.113 87.0488C441.136 86.4868 441.157 85.9789 441.157 85.5679C441.155 83.2288 441.278 80.8657 441.401 78.4963C441.642 73.8642 441.884 69.2077 441.199 64.6583C441.185 64.5662 441.172 64.4777 441.159 64.3925C440.861 62.3918 440.84 62.2536 438.64 62.2991C437.723 62.3181 436.806 62.3429 435.889 62.3677C434.987 62.3921 434.085 62.4165 433.183 62.4354C432.287 62.4542 431.391 62.4715 430.495 62.4887C427.686 62.5427 424.876 62.5968 422.069 62.6996C421.6 62.7169 420.725 62.8266 419.622 62.965C417.416 63.2417 414.294 63.6332 411.667 63.631C411.667 63.6423 411.668 63.6536 411.669 63.6649C411.671 63.6851 411.672 63.7055 411.673 63.7262C411.702 65.1765 411.329 66.7954 410.953 68.4218C410.639 69.7839 410.324 71.1512 410.243 72.4291C410.05 75.47 410.048 78.5429 410.046 81.6158C410.043 85.3576 410.041 89.0994 409.694 92.7833C409.677 92.963 409.667 93.1528 409.657 93.3449C409.655 93.3701 409.654 93.3953 409.653 93.4206C409.77 93.4028 409.884 93.3903 409.994 93.3834C411.887 93.2633 413.796 93.2526 415.703 93.2419C416.754 93.236 417.805 93.2301 418.851 93.2059C420.73 93.1624 422.632 93.1644 424.542 93.1665C428.758 93.171 433.011 93.1756 437.135 92.6898C438.353 92.532 438.779 94.0943 438.232 94.9042C437.743 95.6291 436.397 95.7466 435.41 95.8326C435.16 95.8544 434.932 95.8743 434.748 95.9015C432.088 96.2953 429.393 96.4328 426.71 96.5517C423.891 96.6766 421.071 96.7699 418.25 96.8485C417.579 96.867 416.683 96.9575 415.69 97.0579C413.067 97.323 409.766 97.6568 408.127 96.9152C406.363 96.1172 406.407 95.231 407.129 94.5452C406.815 93.8521 406.765 92.841 406.726 92.05C406.712 91.7475 406.698 91.4772 406.673 91.2692C406.282 88.1145 406.046 85.0003 406.04 81.8186C406.029 75.5864 406.042 69.1137 407.766 63.0812C407.075 62.7789 406.659 62.3332 406.661 61.6908C406.669 58.4543 416.742 58.6189 421.53 58.6972C422.386 58.7112 423.074 58.7225 423.504 58.711C426.992 58.6199 430.481 58.608 433.97 58.6269C434.707 58.6308 435.528 58.5826 436.378 58.5326C438.186 58.4263 440.128 58.3122 441.69 58.6751C445.793 59.6275 445.891 66.1617 445.951 70.0941Z" fill="#7D95E8"/>
<path fill-rule="evenodd" clip-rule="evenodd" d="M471.619 59.3845C475.428 59.1829 479.239 59.1366 483.053 59.1225C487.091 59.1022 491.135 59.1748 495.172 59.2989L495.265 59.3017C497.053 59.3554 506.994 59.654 502.427 62.1312C502.161 62.2757 501.861 62.3965 501.534 62.4967C501.727 63.6437 501.751 64.8279 501.72 65.3984C501.602 67.5619 501.524 69.7278 501.446 71.8937L501.446 71.894L501.446 71.895C501.394 73.3626 501.341 74.8301 501.276 76.2968C501.096 80.3506 500.925 84.4041 500.785 88.4597C500.768 88.9575 500.794 89.6086 500.824 90.3342C500.921 92.7335 501.051 95.9483 499.748 97.1367C498.605 98.1802 497.823 97.9711 497.297 97.2622C494.024 98.2121 487.305 97.9032 483.927 97.7479C483.112 97.7104 482.492 97.6819 482.161 97.6821C481.569 97.6823 480.468 97.7562 479.078 97.8496C473.292 98.2382 462.491 98.9637 462.469 96.1112C462.467 95.8375 462.555 95.5921 462.722 95.3722C462.263 94.9045 461.85 94.2169 461.585 93.3589C460.634 90.2824 460.544 86.9625 460.474 83.7723C460.374 79.2675 460.373 74.7575 460.372 70.2485V70.2485C460.371 67.932 460.371 65.6159 460.357 63.3008C459.741 62.4708 460.109 61.5222 460.879 60.8601C462.522 59.4498 466.601 59.4328 469.551 59.4205C470.345 59.4171 471.058 59.4142 471.619 59.3845ZM465.418 94.12C469.089 93.3352 475.278 93.5876 478.593 93.7229C479.461 93.7583 480.132 93.7856 480.51 93.7843C483.895 93.7709 487.281 93.818 490.663 93.9532C491.014 93.9672 491.533 93.9541 492.144 93.9387C493.372 93.9078 494.972 93.8674 496.332 94.018C496.314 93.8338 496.301 93.6655 496.294 93.5201C496.142 90.5094 496.252 87.4727 496.361 84.4528C496.385 83.8109 496.408 83.1698 496.428 82.5298C496.501 80.2719 496.597 78.0152 496.694 75.7583L496.694 75.7566C496.755 74.3361 496.815 72.9155 496.87 71.4947C496.894 70.8711 496.858 70.024 496.818 69.071C496.736 67.1324 496.636 64.7553 496.983 62.9295C495.73 62.9057 494.447 62.817 493.27 62.7356C492.136 62.6571 491.1 62.5855 490.287 62.5854C489.254 62.5853 488.222 62.5822 487.19 62.579C484.33 62.5702 481.47 62.5614 478.61 62.618L477.795 62.6339C473.857 62.7099 469.886 62.7864 465.981 63.3053C465.752 63.3358 465.476 63.3947 465.171 63.466C465.599 65.2553 465.389 67.7766 465.205 69.9848C465.116 71.0576 465.033 72.0565 465.032 72.8617C465.027 77.8688 465.159 82.8563 465.291 87.8388C465.341 89.7236 465.391 91.6077 465.433 93.4919C465.438 93.7171 465.433 93.9263 465.418 94.12Z" fill="#7D95E8"/>
<path fill-rule="evenodd" clip-rule="evenodd" d="M423.632 96.7038C421.129 98.166 422.479 104.016 423.346 106.039C424.771 109.365 427.664 111.968 430.785 113.695C437.094 117.185 446.188 116.258 450.96 122.309C451.009 122.371 452.658 124.004 453.034 121.89C453.342 120.154 450.263 117.504 449.07 116.634C445.677 114.161 441.326 113.364 437.402 112.128C433.216 110.81 428.624 108.381 426.869 104.066C426.248 102.538 427.432 94.4731 423.632 96.7038" fill="#7D95E8"/>
<path fill-rule="evenodd" clip-rule="evenodd" d="M480.855 99.516C478.561 100.148 480.078 103.305 480.074 104.885C480.07 106.857 479.44 108.921 478.224 110.494C475.143 114.485 469.109 115.082 464.585 116.227C461.3 117.058 453.441 118.84 453.133 123.283C452.79 128.244 459.728 122.206 460.314 121.959C466.8 119.58 475.19 119.121 480.195 113.884C482.261 111.723 483.482 108.838 483.676 105.86C483.786 104.184 483.804 98.7102 480.855 99.516" fill="#7D95E8"/>
<path fill-rule="evenodd" clip-rule="evenodd" d="M433.457 143.521C433.404 134.342 442.188 128.789 450.132 126.701C459.679 124.185 468.573 130.875 469.698 140.499C470.886 150.655 463.232 158.831 453.137 159.279C444.257 159.673 433.514 153.316 433.457 143.521ZM454.787 131.114C455.304 131.816 455.77 132.937 454.729 133.547C453.728 134.13 453.229 133.429 452.726 132.723C452.408 132.277 452.088 131.83 451.641 131.703C450.48 131.377 448.615 132.597 447.648 133.309C447.256 133.598 446.697 134.22 446.044 134.947C443.966 137.262 440.933 140.641 439.256 137.733C432.568 149.282 449.241 157.925 458.723 153.554C469.136 148.754 467.109 131.206 454.787 131.114Z" fill="#7D95E8"/>
<path fill-rule="evenodd" clip-rule="evenodd" d="M446.047 140.447C446.047 142.554 449.374 142.554 449.374 140.447C449.374 138.365 446.047 138.275 446.047 140.447" fill="#7D95E8"/>
<path fill-rule="evenodd" clip-rule="evenodd" d="M451.895 140.052C451.895 142.633 455.972 142.633 455.972 140.052C455.972 137.501 451.895 137.392 451.895 140.052" fill="#7D95E8"/>
<path fill-rule="evenodd" clip-rule="evenodd" d="M447.714 146.067C444.379 148.028 453.915 151.925 454.292 147.943C454.454 146.225 452.79 146.688 451.681 146.562C450.62 146.441 448.721 145.481 447.714 146.067" fill="#7D95E8"/>
<path fill-rule="evenodd" clip-rule="evenodd" d="M446.263 159.981C446.408 164.991 446.338 169.997 447.288 174.937C447.469 175.875 447.594 179.279 448.336 179.975C450.16 181.69 450.19 178.404 450.261 177.145C450.514 172.634 450.041 167.983 449.936 163.463C449.913 162.49 450.171 160.475 449.712 159.533C448.983 158.039 446.192 157.595 446.263 159.981" fill="#7D95E8"/>
<path fill-rule="evenodd" clip-rule="evenodd" d="M442.695 155.919C435.385 164.124 425.319 163.519 415.178 164.238C409.819 164.617 404.401 165.397 400.09 168.863C398.084 170.475 396.355 172.495 395.194 174.796C394.686 175.802 392.277 181.608 395.895 180.23C397.178 179.742 398.441 175.903 399.271 174.767C400.851 172.604 402.874 170.819 405.3 169.658C409.98 167.419 415.568 167.458 420.642 167.173C425.947 166.877 431.64 166.599 436.516 164.293C438.81 163.207 440.962 161.854 442.808 160.11C443.467 159.487 444.882 158.428 444.987 157.475C445.108 156.385 444.06 154.39 442.695 155.919" fill="#7D95E8"/>
<path fill-rule="evenodd" clip-rule="evenodd" d="M405.793 181.103C398.926 181.332 392.068 181.61 385.211 182.044C383.806 182.133 379.12 181.849 380.314 184.729C381.27 187.037 386.984 185.51 388.874 185.398C396.019 184.974 403.194 184.827 410.324 184.184C411.926 184.04 419.166 184.097 416.177 181.258C414.754 179.907 407.758 181.036 405.793 181.103" fill="#7D95E8"/>
<path fill-rule="evenodd" clip-rule="evenodd" d="M375.954 184.416C373.79 187.258 374.784 194.167 374.948 197.585C375.106 200.896 374.463 206.952 378.786 207.465C377.413 207.285 379.828 207.548 380.221 207.57C381.098 207.617 381.98 207.632 382.859 207.641C384.889 207.664 386.921 207.637 388.951 207.596C393.549 207.504 398.159 207.37 402.752 207.116C404.682 207.009 415.155 207.098 415.57 205.093C416.099 202.53 406.058 203.98 404.261 204.062C399.883 204.263 395.499 204.305 391.117 204.362C388.946 204.391 386.772 204.412 384.6 204.37C383.704 204.352 380.153 204.721 379.608 204.122C379.143 203.613 379.506 198.931 379.496 198.215C379.464 195.88 379.466 193.539 379.549 191.206C379.605 189.635 380.455 186.645 379.763 185.169C379.089 183.734 377.127 183.245 375.954 184.416" fill="#7D95E8"/>
<path fill-rule="evenodd" clip-rule="evenodd" d="M411.309 184.548C411.435 189.748 411.474 195.054 412.702 200.14C413.111 201.832 413.684 205.323 415.384 206.199C417.169 207.119 418.71 205.806 418.826 204.037C418.973 201.814 417.783 198.896 417.539 196.614C417.253 193.953 417.088 191.289 416.99 188.614C416.916 186.603 417.528 183.587 415.61 182.29C413.888 181.125 411.253 182.298 411.309 184.548" fill="#7D95E8"/>
<path fill-rule="evenodd" clip-rule="evenodd" d="M424.975 183.277C422.84 185.405 423.794 192.14 424.061 194.873C424.257 196.875 426.448 206.724 429.731 201.588C431.184 199.316 429.339 193.309 429.352 190.661C429.36 188.973 429.957 186.84 429.669 185.219C429.288 183.077 426.912 181.343 424.975 183.277" fill="#7D95E8"/>
<path fill-rule="evenodd" clip-rule="evenodd" d="M439.77 181.523C446.185 180.861 452.607 180.365 459.057 180.303C459.367 180.301 459.692 180.296 460.03 180.292C464.451 180.236 471.095 180.152 474.069 183.471C475.69 185.28 476.425 188.075 477.065 190.512C477.184 190.967 477.3 191.409 477.418 191.83C477.519 192.189 477.65 192.6 477.791 193.043C478.459 195.135 479.364 197.966 478.447 199.718C477.944 200.679 477.135 201.499 475.907 201.158C475.62 201.079 475.395 200.977 475.219 200.857C475.69 201.367 475.898 202.092 475.593 202.802C475.002 204.174 473.136 204.203 471.665 204.226C471.309 204.232 470.976 204.237 470.689 204.261C465.792 204.669 460.872 204.941 455.957 204.984C453.617 205.005 451.277 204.986 448.937 204.967C446.528 204.947 444.118 204.927 441.71 204.951C439.962 204.968 438.181 205.134 436.4 205.301C434.151 205.511 431.901 205.721 429.714 205.631C428.078 205.563 426.331 205.028 426.745 202.913C427.084 201.187 428.708 201.036 430.165 200.901C430.291 200.89 430.417 200.878 430.54 200.865C435.176 200.393 439.815 200.226 444.475 200.243C454.265 200.277 464.047 200.226 473.836 200.175C474.238 200.208 474.617 200.362 474.929 200.596C474.576 200.168 474.583 199.599 474.59 198.992C474.594 198.717 474.597 198.435 474.567 198.155C474.507 197.593 474.452 197.033 474.398 196.473C474.217 194.626 474.037 192.791 473.685 190.932C473.631 190.651 473.58 190.342 473.526 190.016C473.205 188.086 472.781 185.529 471.246 184.486C469.703 183.439 466.678 183.489 464.32 183.528C463.683 183.539 463.095 183.549 462.598 183.536C456.306 183.374 449.978 183.82 443.714 184.39C443.234 184.434 442.752 184.475 442.269 184.518C439.886 184.725 437.491 184.934 435.142 185.36C434.713 185.438 434.056 185.667 433.303 185.93C431.299 186.629 428.613 187.566 427.7 186.534C424.675 183.113 437.966 181.709 439.77 181.523Z" fill="#7D95E8"/>
<path fill-rule="evenodd" clip-rule="evenodd" d="M508.011 173.735C508.29 174.094 508.29 174.094 508.011 173.735ZM464.603 152.544C460.707 154.834 467.918 161.553 469.754 162.592C473.888 164.931 479.568 165.283 484.183 165.941C490.024 166.774 496.381 167.08 501.995 168.995C504.387 169.81 505.907 171.083 507.473 173.039C508.266 174.03 510.177 178.302 511.917 177.291C515.421 175.254 505.98 166.708 503.9 165.789C499.171 163.7 493.581 163.115 488.525 162.304C483.823 161.549 479.02 160.988 474.435 159.658C471.913 158.927 470.121 157.747 468.668 155.489C467.762 154.082 467.019 151.13 464.603 152.544" fill="#7D95E8"/>
<path fill-rule="evenodd" clip-rule="evenodd" d="M524.328 178.79C519.837 178.89 515.354 179.236 510.871 179.581L510.871 179.581C508.357 179.775 505.842 179.969 503.327 180.119C502.541 180.166 501.753 180.208 500.965 180.251C498.749 180.37 496.531 180.49 494.326 180.712C493.991 180.746 493.602 180.778 493.18 180.813L493.18 180.813C491.306 180.967 488.753 181.176 487.121 181.86C485.625 180.73 483.317 181.692 483.281 183.708C483.22 187.382 483.253 190.991 483.702 194.642C483.805 195.49 484.341 199.779 485.506 202.013C485.09 204.124 486.889 204.715 488.563 204.877C495.046 205.503 501.844 205.017 508.55 204.538C511.961 204.294 515.348 204.052 518.658 203.959C519.758 203.928 520.873 203.915 521.994 203.903C525.654 203.862 529.384 203.82 532.926 203.128C533.069 203.1 533.222 203.073 533.381 203.044C534.782 202.793 536.714 202.446 536.861 200.905C536.949 199.98 536.427 199.133 535.554 199.014C535.614 198.243 535.517 197.401 535.446 196.783C535.429 196.639 535.414 196.507 535.402 196.391C535.19 194.247 534.656 192.118 534.129 190.015L534.129 190.015C534.01 189.542 533.892 189.071 533.778 188.601C533.652 188.081 533.535 187.462 533.408 186.795L533.408 186.795C532.963 184.44 532.403 181.48 530.914 180.106C529.353 178.665 526.812 178.729 524.776 178.78C524.624 178.784 524.474 178.787 524.328 178.79ZM532.232 199.244C531.7 197.85 531.544 195.964 531.396 194.172C531.303 193.047 531.213 191.959 531.035 191.053C530.901 190.372 530.791 189.655 530.68 188.925C530.409 187.154 530.128 185.314 529.463 183.762C528.573 181.684 527.781 181.763 525.906 181.951C525.557 181.986 525.171 182.025 524.74 182.054C522.83 182.184 520.921 182.349 519.013 182.514C518.097 182.593 517.181 182.673 516.266 182.748C512.347 183.07 508.426 183.318 504.505 183.565L504.505 183.565C502.214 183.71 499.923 183.855 497.632 184.014C495.834 184.139 494.079 184.481 492.332 184.821L492.332 184.821C490.948 185.091 489.569 185.36 488.176 185.519C488.156 185.996 488.116 186.474 488.078 186.93L488.078 186.93C488.026 187.55 487.978 188.128 487.988 188.601C488.034 190.7 488.219 192.785 488.404 194.873L488.404 194.874C488.433 195.195 488.462 195.516 488.49 195.837C488.523 196.223 488.606 196.717 488.698 197.266C488.84 198.115 489.004 199.093 489.04 199.994C489.209 199.992 489.378 199.993 489.543 199.994C489.758 199.994 489.968 199.995 490.17 199.992C495.108 199.905 500.042 199.756 504.976 199.566C505.606 199.542 506.235 199.517 506.865 199.493C511.267 199.321 515.67 199.15 520.076 199.1C521.826 199.08 523.6 199.134 525.378 199.19C527.667 199.26 529.964 199.331 532.232 199.244Z" fill="#7D95E8"/>
</g>
<path fill-rule="evenodd" clip-rule="evenodd" d="M135.176 169.855C140.79 173.24 146.306 174.875 148.895 174.207C155.387 172.533 155.984 148.776 150.961 139.41C145.937 130.045 120.112 125.962 118.811 144.519C118.359 150.959 121.062 156.707 125.057 161.397L117.895 194.79H138.7L135.176 169.855Z" fill="#B28B67"/>
<path fill-rule="evenodd" clip-rule="evenodd" d="M160.179 126.426C159.748 124.912 158.589 123.615 157.027 123.23C156.649 123.137 156.258 123.099 155.868 123.115C155.728 123.12 155.689 123.16 155.624 123.063C155.575 122.99 155.574 122.813 155.554 122.728C155.492 122.463 155.414 122.201 155.319 121.947C154.992 121.077 154.443 120.308 153.781 119.66C152.543 118.448 150.869 117.611 149.131 117.46C148.18 117.377 147.235 117.532 146.336 117.841C145.87 118.002 145.419 118.201 144.979 118.422C144.847 118.488 144.417 118.813 144.284 118.792C144.138 118.769 143.843 118.404 143.723 118.313C142.248 117.181 140.427 116.736 138.59 116.749C136.516 116.765 134.519 116.868 132.79 118.133C132.424 118.4 132.075 118.693 131.743 119.002C131.569 119.165 131.399 119.333 131.238 119.509C131.14 119.615 131.045 119.723 130.954 119.834C130.799 120.023 130.824 120.085 130.607 119.953C129.775 119.447 128.81 119.211 127.839 119.33C127.262 119.401 126.701 119.574 126.168 119.802C125.986 119.88 125.566 120.19 125.373 120.193C125.181 120.196 124.767 119.909 124.569 119.836C123.502 119.442 122.352 119.344 121.23 119.527C120.072 119.714 118.936 120.176 117.955 120.814C117.484 121.121 117.072 121.462 116.742 121.918C116.599 122.115 116.47 122.324 116.308 122.506C116.213 122.613 116.026 122.723 115.975 122.859C116.006 122.777 114.71 122.278 114.587 122.246C113.936 122.076 113.272 122.11 112.634 122.32C111.435 122.715 110.403 123.601 109.555 124.509C109.119 124.975 108.738 125.491 108.415 126.04C108.26 126.303 108.118 126.573 107.988 126.85C107.925 126.984 107.884 127.151 107.801 127.272C107.694 127.427 107.622 127.43 107.429 127.498C106.447 127.842 105.552 128.424 104.871 129.211C104.181 130.007 103.734 130.988 103.546 132.02C103.535 132.081 103.529 132.333 103.493 132.366C103.444 132.411 103.247 132.391 103.172 132.4C102.913 132.43 102.657 132.476 102.403 132.536C101.936 132.646 101.481 132.809 101.051 133.022C99.3746 133.852 98.1757 135.407 97.5889 137.158C96.9732 138.994 96.9841 141.099 97.72 142.902C97.8388 143.193 97.9803 143.475 98.1464 143.743C98.2484 143.907 98.2813 143.907 98.2151 144.079C98.1413 144.271 98.0064 144.457 97.9187 144.644C97.6327 145.255 97.4327 145.903 97.3065 146.565C97.0992 147.65 96.9965 148.791 97.201 149.885C97.2959 150.392 97.4613 150.889 97.7136 151.341C97.8422 151.572 97.9927 151.791 98.1627 151.993C98.2509 152.098 98.3447 152.198 98.4427 152.294C98.4987 152.349 98.5722 152.397 98.6199 152.459C98.7362 152.608 98.7607 152.485 98.7007 152.705C98.6168 153.012 98.4266 153.315 98.3101 153.613C98.1901 153.921 98.0817 154.233 97.9825 154.548C97.7815 155.187 97.6116 155.836 97.5054 156.497C97.3014 157.766 97.3372 159.118 97.9372 160.282C98.1937 160.78 98.5618 161.217 99.0082 161.557C99.2266 161.724 99.4633 161.867 99.7115 161.985C99.8391 162.045 100.002 162.071 100.06 162.195C100.123 162.327 100.03 162.591 100.009 162.739C99.8241 164.03 99.7316 165.385 100.115 166.649C100.468 167.814 101.246 168.842 102.256 169.523C104.215 170.844 106.855 170.77 108.913 169.712C109.45 169.437 109.952 169.094 110.4 168.691C111.54 170.226 113.886 170.177 115.552 169.74C117.628 169.195 119.294 167.751 120.254 165.854C121.567 167.452 124.321 166.933 125.231 165.2C125.454 164.775 125.586 164.308 125.651 163.835C125.685 163.586 125.663 163.335 125.689 163.088C125.722 162.773 125.932 162.468 126.053 162.163C126.288 161.571 126.434 160.959 126.44 160.32C126.443 159.987 126.401 159.662 126.369 159.331C126.341 159.033 126.423 158.756 126.47 158.462C125.938 158.549 125.289 158.406 124.788 158.251C124.295 158.1 123.834 157.701 123.487 157.336C122.68 156.49 122.187 155.38 121.85 154.276C121.11 151.852 121.413 148.944 123.851 147.614C124.986 146.994 128.388 146.996 129.74 147.302C131.162 147.624 132.774 150.763 132.853 151.058C132.902 151.24 132.878 151.466 133.045 151.588C133.414 151.855 134.022 151.391 134.293 151.162C134.762 150.767 135.097 150.241 135.387 149.707C136.018 148.546 136.527 147.3 136.886 146.028C137.164 145.048 137.341 144.037 137.703 143.081C138.064 142.13 138.632 141.281 139.515 140.742C140.477 140.156 141.578 139.848 142.634 139.479C143.68 139.115 144.707 138.669 145.518 137.894C145.696 137.724 145.87 137.543 146.013 137.343C146.126 137.184 146.238 136.881 146.411 136.781C146.679 136.625 147.071 137.031 147.303 137.178C148.447 137.905 149.402 138.92 150.173 140.028C150.939 141.129 151.567 142.19 152.078 143.42C152.457 144.333 152.693 145.501 153.359 146.249C153.657 146.583 155.868 146.785 156.584 146.494C157.3 146.202 158.103 145.445 158.343 144.971C158.589 144.485 158.648 143.952 158.543 143.42C158.481 143.107 158.355 142.815 158.286 142.508C158.228 142.25 158.175 142.006 158.049 141.77C157.811 141.322 157.405 141 156.914 140.865C157.425 140.395 157.847 139.832 158.14 139.203C158.444 138.549 158.702 137.754 158.775 137.036C158.834 136.454 158.742 135.85 158.423 135.349C158.089 134.824 157.496 134.481 156.983 134.153C157.767 133.54 158.437 132.794 158.988 131.969C160.06 130.364 160.723 128.34 160.179 126.426Z" fill="#2F196B"/>
<path fill-rule="evenodd" clip-rule="evenodd" d="M110.961 266.76L152.643 377.08L181.859 458.392H198.518L158.357 266.76L110.961 266.76Z" fill="#6B80C8"/>
<path fill-rule="evenodd" clip-rule="evenodd" d="M100.661 266.76C100.208 304.613 100.535 355.576 99.4796 357.936C98.4239 360.295 33.8086 411.704 33.8086 411.704L42.3952 426.309C42.3952 426.309 119.108 376.826 123.03 370.233C126.953 363.64 146.656 302.973 156.908 266.76H100.661Z" fill="#7D95E8"/>
<path fill-rule="evenodd" clip-rule="evenodd" d="M18.7027 421.532L33.2057 410.491L44.9075 424.441C46.2577 440.214 55.3501 459.822 55.3501 459.822L52.6938 462.051L31.519 436.81L25.6032 427.06L24.275 428.174L18.7027 421.532Z" fill="#2F196B"/>
<path fill-rule="evenodd" clip-rule="evenodd" d="M180.316 474L181.183 455.791L199.388 455.791C212.336 464.896 233.197 470.532 233.197 470.532V474H200.255L188.985 472.266V474H180.316Z" fill="#2F196B"/>
<path fill-rule="evenodd" clip-rule="evenodd" d="M219.744 227.675L185.516 232.345L191.657 247.683L219.43 236.67C231.401 237.851 237.189 237.567 236.795 235.817C236.463 234.341 235.191 233.896 234.019 233.485C233.106 233.165 232.254 232.867 231.954 232.12C231.271 230.413 235.162 226.875 238.998 223.677C242.833 220.479 240.258 219.891 238.64 219.938C232.889 221.286 226.59 223.865 219.744 227.675ZM53.2251 311.77C55.7655 306.615 77.994 240.269 77.994 240.269L96.9768 240.34C96.9768 240.34 65.7541 310.621 64.4168 313.936C62.6796 318.242 65.6304 324.499 67.6314 328.741C67.9409 329.397 68.2277 330.006 68.4709 330.551C65.6945 331.793 64.3609 330.291 62.9548 328.708C61.3667 326.919 59.6863 325.027 55.7304 326.868C54.2021 327.579 52.7559 328.42 51.343 329.241C46.4624 332.079 41.9788 334.686 35.8795 330.921C34.9125 330.325 33.8529 328.077 36.4131 326.322C42.7915 321.947 51.9832 314.29 53.2251 311.77Z" fill="#997659"/>
<path fill-rule="evenodd" clip-rule="evenodd" d="M129.989 180.048L144.852 181.039C148.512 214.163 168.45 235.086 213.091 228.003L219.022 270.66C177.298 276.054 140.707 259.346 133.207 214.107C131.266 202.396 129.733 190.209 129.989 180.048Z" fill="#E1BB32"/>
<path fill-rule="evenodd" clip-rule="evenodd" d="M55.8281 303.179C66.1474 248.259 87.928 205.771 121.17 175.713H122.594H122.645L122.657 175.727L145.174 180.885C145.174 207.943 151.192 228.16 156.978 247.597C159.476 255.991 161.932 264.239 163.84 272.83H103.024C102.167 282.672 101.641 292.789 101.367 303.179H55.8281Z" fill="#FDD855"/>
<path fill-rule="evenodd" clip-rule="evenodd" d="M103.023 272.83C104.767 252.794 107.881 233.893 113.029 216.127C111.901 235.128 111.588 258.696 115.383 272.83H103.023Z" fill="black" fill-opacity="0.1"/>
<path fill-rule="evenodd" clip-rule="evenodd" d="M397.87 168.138C392.471 171.391 387.166 172.963 384.675 172.321C378.429 170.712 377.855 147.872 382.688 138.868C387.52 129.864 412.364 125.94 413.617 143.78C414.051 149.972 411.45 155.498 407.606 160.008L414.496 192.109H394.481L397.87 168.138Z" fill="#DBC1B2"/>
<path fill-rule="evenodd" clip-rule="evenodd" d="M396.87 145.747C395.139 143.171 393.477 141.207 391.316 140.065C382.516 140.204 381.486 138.628 381.486 133.313C382.907 132.297 387.922 130.585 393.538 130.103C396.403 129.284 399.796 129.438 403.066 130.805C407.102 131.949 410.519 134.415 412.028 139.029C417.489 148.45 413.344 158.257 407.758 161.607C406.271 159.846 404.974 158.139 403.816 156.506C404.746 155.597 405.324 154.33 405.324 152.927C405.324 150.165 403.083 147.926 400.32 147.926C400.116 147.926 399.915 147.938 399.718 147.962C399.593 151.416 399.082 163.1 397.738 167.159C396.153 171.944 386.905 173.119 383.68 173.119C380.894 173.119 380.989 170.482 381.057 168.592C381.066 168.32 381.076 168.063 381.076 167.832C381.076 167.349 381.704 167.35 382.414 167.352C383.335 167.354 384.394 167.356 384.394 166.299C384.394 165.147 382.802 164.263 381.376 163.472C380.487 162.979 379.663 162.521 379.331 162.058C378.286 160.595 377.934 158.622 379.511 158.622C380.373 158.622 381.556 159.119 382.979 159.716C385.127 160.619 387.823 161.751 390.789 161.751C395.721 161.751 396.87 145.747 396.87 145.747L396.87 145.747Z" fill="#2F196B"/>
<path fill-rule="evenodd" clip-rule="evenodd" d="M416.172 261.3L375.239 364.859L347.786 452.409H336.945L378.915 261.3L416.172 261.3Z" fill="#3D2216"/>
<path fill-rule="evenodd" clip-rule="evenodd" d="M424.413 261.3C424.849 297.691 431.206 346.686 432.221 348.954C433.237 351.223 502.34 406.649 502.34 406.649L494.873 414.636C494.873 414.636 413.338 367.115 409.565 360.777C405.792 354.439 393.508 296.115 383.646 261.3H424.413Z" fill="#E8D7CD"/>
<path fill-rule="evenodd" clip-rule="evenodd" d="M501.036 405.501C501.375 404.381 502.559 403.71 503.656 404.119C505.306 404.734 507.508 405.653 508.521 406.503C510.249 407.952 513.081 411.309 513.081 411.309C511.399 413.313 482.846 447.327 482.846 447.327C482.846 447.327 477.024 444.836 479.193 441.501C481.362 438.165 482.743 435.914 482.743 435.914L489.283 413.075C489.438 412.534 490.01 412.227 490.547 412.398L493.899 413.46C493.899 413.46 497.557 411.756 499.026 410.005C499.857 409.016 500.571 407.036 501.036 405.501Z" fill="#E4E4E4"/>
<path fill-rule="evenodd" clip-rule="evenodd" d="M349.582 447.579C350.659 447.119 351.933 447.594 352.325 448.697C352.914 450.356 353.625 452.634 353.625 453.955C353.625 456.21 352.873 460.536 352.873 460.536C350.256 460.536 305.836 460.536 305.836 460.536C305.836 460.536 304.003 454.477 307.953 453.994C311.903 453.511 314.516 453.122 314.516 453.122L336.223 443.449C336.737 443.22 337.339 443.46 337.554 443.981L338.894 447.231C338.894 447.231 342.551 448.936 344.838 448.936C346.13 448.936 348.107 448.21 349.582 447.579Z" fill="#E4E4E4"/>
<path fill-rule="evenodd" clip-rule="evenodd" d="M388.651 443.391L337.108 437.799L375.308 261.3H421.473L388.651 443.391Z" fill="#43CDB4"/>
<path fill-rule="evenodd" clip-rule="evenodd" d="M491.676 393.763L457.867 433.765C457.867 433.765 404.451 375.45 395.584 357.664C386.716 339.877 379.641 261.3 379.641 261.3H431.615C431.615 261.3 435.48 330.429 436.825 333.646C438.171 336.863 491.676 393.763 491.676 393.763Z" fill="#71EBD5"/>
<path fill-rule="evenodd" clip-rule="evenodd" d="M473.384 298.735C470.94 293.779 458.73 229.995 458.73 229.995L440.468 230.064C440.468 230.064 461.331 297.63 462.618 300.817C464.289 304.957 461.45 310.972 459.525 315.05C459.227 315.681 458.952 316.266 458.718 316.79C461.388 317.985 462.672 316.541 464.024 315.018C465.552 313.299 467.169 311.479 470.974 313.249C472.444 313.933 473.836 314.741 475.195 315.531C479.89 318.259 484.203 320.765 490.071 317.146C491.001 316.572 492.021 314.412 489.558 312.724C483.422 308.518 474.579 301.158 473.384 298.735ZM319.58 273.882L343.204 250.845L351.051 264.416L326.484 278.894C320.325 288.593 316.707 292.784 315.631 291.466C314.724 290.355 315.14 289.138 315.523 288.016C315.821 287.143 316.099 286.327 315.717 285.666C314.844 284.156 309.912 285.021 305.266 286.041C300.621 287.062 301.696 284.781 302.683 283.591C307.074 280.049 312.706 276.813 319.58 273.882Z" fill="#E8D7CE"/>
<path fill-rule="evenodd" clip-rule="evenodd" d="M403.084 178.212L395.873 176.976C384.512 217.116 326.144 244.478 322.561 259.484C321.247 264.986 325.209 267.768 323.162 269.444L332.536 276.303C334.123 274.452 337.51 277.838 344.584 275.47C351.658 273.101 403.084 225.742 403.084 178.212Z" fill="#2F196B"/>
<path fill-rule="evenodd" clip-rule="evenodd" d="M415.248 169.879C417.452 169.725 419.363 171.387 419.517 173.59L419.813 177.81C433.385 188.251 467.02 219.447 475.785 277.518C476.706 283.619 475.041 286.886 473.71 289.497C472.8 291.283 472.047 292.761 472.385 294.629L460.117 298.014C460.117 296.635 458.571 295.586 456.577 294.232C453.676 292.264 449.828 289.652 448.404 284.446C447.056 279.512 445.081 273.349 442.721 266.493C442.498 275.573 440.775 283.924 437.022 290.841C427.659 308.097 373.55 289.172 367.897 271.568C364.88 262.173 369.161 254.287 374.822 243.856C382.009 230.613 391.421 213.271 390.953 183.539L390.4 175.626C390.245 173.422 391.907 171.511 394.111 171.356L415.248 169.879Z" fill="#4D368C"/>
</svg>
